<svg id="f5ba7381-960b-49e3-9a82-1b569577f8a9" data-name="Layer 1" xmlns="http://www.w3.org/2000/svg" viewBox="0 0 449.31 499.26"><defs><style>.a64e94b5-8153-453f-9126-898a8f22d8d7,.e8ac427e-01e6-4e87-9641-8eb672da7ba4{fill:#ffc500;}.a64e94b5-8153-453f-9126-898a8f22d8d7,.b8f681de-2ceb-40b8-9bba-3150a9c11577,.f14449d5-d59d-47d2-bf08-71c8e7e18cac{opacity:0.2;}.a64e94b5-8153-453f-9126-898a8f22d8d7,.b8f681de-2ceb-40b8-9bba-3150a9c11577,.e8ac427e-01e6-4e87-9641-8eb672da7ba4{isolation:isolate;}.b8f681de-2ceb-40b8-9bba-3150a9c11577,.ba71db18-5c02-41a2-a135-d59b9372c0ee{fill:#263238;}.b215c82c-ab7a-4706-b4f9-ac28818e7c98,.e21f997d-92bd-4392-9a0e-0ec4a921579d{fill:none;stroke:#263238;}.b215c82c-ab7a-4706-b4f9-ac28818e7c98{stroke-miterlimit:10;}.e21f997d-92bd-4392-9a0e-0ec4a921579d{stroke-linecap:round;stroke-linejoin:round;}.e8ac427e-01e6-4e87-9641-8eb672da7ba4{opacity:0.7;}</style></defs><g id="f86d36c7-5bcc-40fd-b8d9-bf5146a0dc0d" data-name="e83bd5e9-5a79-42c8-b29b-9e3048f1a5c0"><path class="a64e94b5-8153-453f-9126-898a8f22d8d7" d="M357.66,19.14c24.81,31.33,32.64,71.37,33.51,107.92s-5.65,69.63-22.63,94.44c-17,25.24-44,42.21-77,62.23s-71.37,43.08-99.24,33.94c-27.42-9.14-44.39-50.48-64.41-88.34-20.45-37.86-44.39-72.68-40.47-103.57,3.48-31.34,34.81-59.19,67-89.21,31.76-30,64.84-62.23,101.39-66.59C292.82-34.8,333.29-12.19,357.66,19.14Z" transform="translate(58.06 30.67)"/><g class="f14449d5-d59d-47d2-bf08-71c8e7e18cac"><path class="ba71db18-5c02-41a2-a135-d59b9372c0ee" d="M122.74,228.89a19.73,19.73,0,1,0,19.74,19.73,19.73,19.73,0,0,0-19.74-19.73Zm0,26.87a7.14,7.14,0,1,1,7.14-7.14,7.14,7.14,0,0,1-7.14,7.14Z" transform="translate(58.06 30.67)"/><path class="ba71db18-5c02-41a2-a135-d59b9372c0ee" d="M122.74,197.82A12.18,12.18,0,1,0,134.92,210h0a12.17,12.17,0,0,0-12.16-12.18Zm0,16.58a4.41,4.41,0,1,1,4.41-4.41h0a4.4,4.4,0,0,1-4.4,4.4Z" transform="translate(58.06 30.67)"/><rect class="b215c82c-ab7a-4706-b4f9-ac28818e7c98" x="155.46" y="222.25" width="50.69" height="82.51" rx="3.94"/></g><g class="f14449d5-d59d-47d2-bf08-71c8e7e18cac"><path class="ba71db18-5c02-41a2-a135-d59b9372c0ee" d="M363.48,228.89a19.73,19.73,0,1,0,19.69,19.77v0A19.73,19.73,0,0,0,363.48,228.89Zm0,26.87a7.14,7.14,0,1,1,7.14-7.14,7.14,7.14,0,0,1-7.14,7.14Z" transform="translate(58.06 30.67)"/><path class="ba71db18-5c02-41a2-a135-d59b9372c0ee" d="M363.48,197.82A12.18,12.18,0,1,0,375.65,210h0A12.19,12.19,0,0,0,363.48,197.82Zm0,16.58a4.41,4.41,0,1,1,4.4-4.42v0a4.41,4.41,0,0,1-4.4,4.4Z" transform="translate(58.06 30.67)"/><rect class="b215c82c-ab7a-4706-b4f9-ac28818e7c98" x="396.19" y="222.25" width="50.69" height="82.51" rx="3.94"/></g><line class="e21f997d-92bd-4392-9a0e-0ec4a921579d" x1="227.52" y1="31.02" x2="227.52" y2="43.9"/><line class="e21f997d-92bd-4392-9a0e-0ec4a921579d" x1="233.96" y1="37.46" x2="221.08" y2="37.46"/><line class="e21f997d-92bd-4392-9a0e-0ec4a921579d" x1="199.34" y1="109.92" x2="199.34" y2="118.78"/><line class="e21f997d-92bd-4392-9a0e-0ec4a921579d" x1="203.77" y1="114.35" x2="194.92" y2="114.35"/><line class="e21f997d-92bd-4392-9a0e-0ec4a921579d" x1="394.19" y1="24.57" x2="394.19" y2="33.43"/><line class="e21f997d-92bd-4392-9a0e-0ec4a921579d" x1="398.61" y1="29" x2="389.76" y2="29"/><line class="e21f997d-92bd-4392-9a0e-0ec4a921579d" x1="341.05" y1="231.49" x2="341.05" y2="240.35"/><line class="e21f997d-92bd-4392-9a0e-0ec4a921579d" x1="345.48" y1="235.92" x2="336.62" y2="235.92"/><line class="e21f997d-92bd-4392-9a0e-0ec4a921579d" x1="384.12" y1="102.67" x2="384.12" y2="113.14"/><line class="e21f997d-92bd-4392-9a0e-0ec4a921579d" x1="389.35" y1="107.91" x2="378.89" y2="107.91"/><line class="e21f997d-92bd-4392-9a0e-0ec4a921579d" x1="410.29" y1="29.41" x2="410.29" y2="39.87"/><line class="e21f997d-92bd-4392-9a0e-0ec4a921579d" x1="415.52" y1="34.64" x2="405.05" y2="34.64"/><path class="e21f997d-92bd-4392-9a0e-0ec4a921579d" d="M122,47.45a3.63,3.63,0,1,1-3.64-3.62h0A3.61,3.61,0,0,1,122,47.44Z" transform="translate(58.06 30.67)"/><path class="e21f997d-92bd-4392-9a0e-0ec4a921579d" d="M310.36,185.53a3.63,3.63,0,1,1-3.64-3.62h0a3.61,3.61,0,0,1,3.63,3.61Z" transform="translate(58.06 30.67)"/><path class="e21f997d-92bd-4392-9a0e-0ec4a921579d" d="M369.17,65.2a3.62,3.62,0,1,1-3.62-3.62h0A3.63,3.63,0,0,1,369.17,65.2Z" transform="translate(58.06 30.67)"/><circle class="e21f997d-92bd-4392-9a0e-0ec4a921579d" cx="199.34" cy="15.32" r="2.82"/><circle class="e21f997d-92bd-4392-9a0e-0ec4a921579d" cx="240.41" cy="215.79" r="2.82"/><circle class="e21f997d-92bd-4392-9a0e-0ec4a921579d" cx="175.19" cy="146.55" r="2.82"/><path class="b8f681de-2ceb-40b8-9bba-3150a9c11577" d="M212.42,266.6c-2-8.73-1.46-17.63,4.91-26.7a70.23,70.23,0,0,1,11.19-12.42V182.69c-5.29-.54-8.67-5.76-8.66-13.56h0c0-2.84,0-7.59.42-13.14h0c.12-2.81.25-5.52.35-7.61-.5-.15-1-.3-1.49-.47a47.31,47.31,0,0,1-16.26-9,34.88,34.88,0,0,1-6.25-7.14,24.72,24.72,0,0,1-3.51-9.11c-1.13-6.28-.81-12.49-.26-18.56s1.51-12,2.48-17.9,2-11.67,3-17.42,2.06-11.42,3.3-17a79.89,79.89,0,0,1,5.12-16.25,26.94,26.94,0,0,1,4.77-7.17,16.56,16.56,0,0,1,3.59-2.7,38.26,38.26,0,0,1,3.68-1.84,88.07,88.07,0,0,1,14.68-4.71,110.84,110.84,0,0,1,14.12-2.44c2.3-.24,4.56-.39,6.8-.41a36.45,36.45,0,0,1,6.68.49,27.44,27.44,0,0,1,6.06,2,44.2,44.2,0,0,1,5.21,2.8A68.43,68.43,0,0,1,287.17,34.2a46.29,46.29,0,0,1,7.17,10.47A25.61,25.61,0,0,1,295.62,48l.29,1.08h0l.23,1.18c.08.39.15.86.22,1.42s.16,1.22.2,2a81.81,81.81,0,0,1,0,10.62l-6.94-4.73,6.66,8.95c-.11,1.45-.25,3-.4,4.56l-7.23-4.75,6.79,9.08c-.15,1.38-.31,2.81-.49,4.27L287.68,77l6.75,9c-.17,1.35-.34,2.73-.52,4.13l-7.2-4.34,6.64,8.78c-.17,1.32-.34,2.67-.52,4l-7.08-4,6.49,8.51c-.18,1.31-.37,2.64-.56,4l-6.91-3.73,6.26,8.14c-.2,1.3-.42,2.62-.64,4l-6.58-3.33,5.83,7.54c-.25,1.33-.51,2.67-.8,4l-6-2.81L288,127.5c-.31,1.22-.63,2.45-1,3.68a50.84,50.84,0,0,1-2.73,7.46,25.74,25.74,0,0,1-2.05,3.66c-.22.3-.39.59-.65.9s-.51.66-.72.88l-.34.36-.17.19-.27.26a7.6,7.6,0,0,1-.93.77,24.37,24.37,0,0,1-8,3.42c-1,.27-2.08.51-3.13.73-.35,1.45-1,4-1.66,6.8a13.53,13.53,0,0,1-.44,16.88,10.68,10.68,0,0,1-6.45,3.65A15,15,0,0,1,258,179c.41,2.92,2,6,3.67,9.32,3.14,6.17,7.05,13.85,1.84,21.38-3.63,5.24-9.79,8.84-15.75,12.32l-.21.12V280.9l3.73-15.51c33.11,2.14,58.17,12.11,58.17,24.1v8.64c0,13.54-32,24.52-71.44,24.52s-71.44-11-71.44-24.52v-8.64C166.62,279.05,185.63,270.13,212.42,266.6Zm4.94-23.4a29,29,0,0,0-4.08,11.61c.58-1.59,1-3.2,1.68-4.77a47.93,47.93,0,0,1,3.07-6.12c1.89-3.28,4.38-6.19,6.2-9.49A70.93,70.93,0,0,0,217.36,243.2Zm5.45.56c-5.17,7.35-5.56,14.57-3.71,22.09,3.06-.29,6.2-.5,9.42-.65V236.76a61.73,61.73,0,0,0-5.71,7Zm1.11-73.07a23.93,23.93,0,0,0,2,6,24.26,24.26,0,0,1-1-5.67,33.59,33.59,0,0,1,.71-7c.67-3.28,1.42-6.53,2.19-9.78l11.49.15c.42,3.87.85,7.73,1.48,11.57a32.59,32.59,0,0,0,2.29,7.91,24.15,24.15,0,0,0,3.63,5.57,30.89,30.89,0,0,1-2.54-5.24,31.36,31.36,0,0,1-1.21-8c-.1-3.92.09-7.84.26-11.76h0c.15-3.19.33-6.29.43-8H224.54c-.07,1.37-.16,3.42-.27,5.74-.28,3.72-.55,7.44-.68,11.16a33.4,33.4,0,0,0,.33,7.34Zm10.6,116.7a1,1,0,0,0,1.25.66,1,1,0,0,0,.66-.66l-.26-44.56q-.18-36.26-.24-72.5V157.75A276.75,276.75,0,0,0,234,189.92c-.12,12.4-.14,24.8-.2,37.19q-.1,18.33.22,36.66c.07,5.37.19,10.75.28,16.13,0,2.18.1,4.37.15,6.56a7,7,0,0,0,.05.92ZM197,100.32c1.95,0,3.9,0,5.85.07,2.5.17,5,.46,7.48.77q0-4.11.23-8.24c-2.06.44-4.1.89-6.14,1.43-2.36.64-4.66,1.47-6.95,2.3C197.3,97.87,197.17,99.09,197,100.32Zm1.13-8.27c2-.09,4-.14,6-.07,2.16.1,4.3.28,6.44.47.17-2.66.39-5.31.66-8a123,123,0,0,0-12.56,4c-.17,1.22-.35,2.41-.5,3.6Zm1.34-8.24c4-.19,7.88-.16,11.85,0q.41-3.93.9-7.84c-4.12,1.25-8.15,2.64-12.15,4.28ZM201.53,72v-.08l-.63,3.6c3.82-.27,7.61-.35,11.43-.29.33-2.6.67-5.19,1-7.77-4,1.36-7.92,2.85-11.8,4.54Zm1.46-8.4-.66,3.63c3.7-.33,7.38-.51,11.09-.58q.51-3.89,1.15-7.76c-3.89,1.5-7.73,3.08-11.53,4.85C203,63.72,203,63.67,203,63.62Zm.88-4.66c3.61-.4,7.22-.67,10.85-.86.46-2.66,1-5.31,1.59-7.94-4,1.67-7.88,3.42-11.74,5.33-.24,1.15-.47,2.3-.7,3.47Zm2.67-12c-.32,1.21-.62,2.42-.91,3.64,3.6-.47,7.21-.83,10.84-1.14.68-2.86,1.47-5.7,2.39-8.5-4.15,1.94-8.26,3.91-12.32,6Zm62.53-19.85a7.45,7.45,0,0,0-4.63-.57c-2.76.84-3.83,4.48-3.94,7,1.46-1.66,2.09-4.67,4.15-5.7,1.16-.59,2.68-.3,3.9-.08s2.17.41,3.27.58c0-.24-2.49-1.14-2.75-1.21Zm-1.85,16.34a37.7,37.7,0,0,0-11.48-5.56h0c-9.23-.82-18.44.9-27.68.77-.37,2.9-.71,5.8-1,8.7a13.06,13.06,0,0,1,2.21-1c1.12-.44,2.28-.82,3.43-1.18a68.78,68.78,0,0,1,8-2,45.05,45.05,0,0,1,14.09-.75,5.22,5.22,0,0,1,1,.17,32.53,32.53,0,0,1,10.56,3.14,88,88,0,0,1,11.12,6.46,89.84,89.84,0,0,0-10.25-8.73Zm-9.47,54.22a54,54,0,0,0-9.58-3.83v-.08c-4.76-.84-9.62-1.19-14.42-1.58-2.48-.2-5-.37-7.45-.55-1.11-.08-2.23-.15-3.34-.24-.08,0-1.2-.14-1.73-.25v.3c-.44,2.77-.9,5.54-1.3,8.33,8.82-3,18.74-3.07,27.84-1.4h.15l.7.07a30.27,30.27,0,0,1,4.73.86c6.17,1.57,11.85,4.21,17.55,7a88.05,88.05,0,0,0-13.12-8.66Zm-35.1-7.2a31.87,31.87,0,0,1,3.32-.89,59.07,59.07,0,0,1,21.45-.79c.68.1,1.34.23,2,.37h.5a33.76,33.76,0,0,1,4.57.86c6.17,1.48,11.87,4.38,17.47,7.28A81.73,81.73,0,0,0,259,88.42h0l-.21-.1.2.1a52.17,52.17,0,0,0-9.29-3.82v-.13a83.48,83.48,0,0,0-8.35-.87c-4.65-.37-9.32-.57-14-.8-1.22-.06-2.44-.11-3.66-.21a5.75,5.75,0,0,1-1.16-.2q-.65,4.22-1.31,8.43a11.11,11.11,0,0,1,1.41-.33Zm0-8.4a45.49,45.49,0,0,1,6.88-1.89,56.82,56.82,0,0,1,17.16-.91c1.31.13,2.57.33,3.82.58v-.07a2.34,2.34,0,0,0,.45.07,36.87,36.87,0,0,1,5,1c6,1.5,11.64,4.51,17.07,7.48a78.7,78.7,0,0,0-12.69-9.06c.13.07.22.11-.07,0s-.22-.12-.07,0a50.49,50.49,0,0,0-9-3.8v-.15a64.55,64.55,0,0,0-8.21-.74c-4.83-.25-9.66-.36-14.49-.5-1.26,0-2.53-.07-3.8-.15a2.71,2.71,0,0,1-.89-.18c-.38,2.82-.79,5.63-1.21,8.44Zm1.57-8.92a48.36,48.36,0,0,1,7.08-2A58.63,58.63,0,0,1,248.17,70a29.25,29.25,0,0,1,3.72.54V70.5h0a6.18,6.18,0,0,1,1,.14c1.55.28,3.06.57,4.59,1,5.93,1.53,11.39,4.66,16.66,7.68A76.72,76.72,0,0,0,261.62,70c.13.08.22.12-.06,0s-.21-.12-.06,0a48.18,48.18,0,0,0-9.13-3.93.43.43,0,0,0,0-.16,59.07,59.07,0,0,0-9.11-.59c-5.16-.14-10.32,0-15.47-.17h-2a2.75,2.75,0,0,1-.9-.11c-.33,2.8-.69,5.59-1.06,8.38a2.19,2.19,0,0,1,.41-.26Zm2.61-9.29a56.48,56.48,0,0,1,7.56-2,57.18,57.18,0,0,1,16.09-1c.83.08,1.64.2,2.44.35a.17.17,0,0,0,0-.1c.42.11.84.18,1,.21a41.92,41.92,0,0,1,4.85,1.07c5.89,1.68,11.26,4.79,16.46,7.93a75.48,75.48,0,0,0-12.32-9.48h-.08l-.09-.05a45.39,45.39,0,0,0-9.35-4.06v-.12c-.9-.09-1.84-.07-2.72-.23-2.63-.17-5.25-.2-7.88-.19-5.23,0-10.45.26-15.68.18-.22,0-1.06,0-1.17-.13q-.49,4.29-1,8.56a10.18,10.18,0,0,1,1.91-.92Zm-.61-8a14.62,14.62,0,0,1,3-1.18,73.32,73.32,0,0,1,7.57-2,51,51,0,0,1,15.43-1.09c.58.06,1.15.15,1.72.25v-.07a12.21,12.21,0,0,0,1.21.2,22.05,22.05,0,0,1,4.61,1c6,1.76,11.38,5,16.59,8.28a73.15,73.15,0,0,0-12.14-9.69l-.08-.05a33.68,33.68,0,0,0-9.67-4.28v-.09c-1-.13-2.08-.14-3.08-.19-2.91-.15-5.84-.08-8.75,0-3.07.13-6.13.26-9.2.36l-4,.1a7.81,7.81,0,0,1-2.46,0L226,56a.66.66,0,0,1,.27-.12ZM284.4,96.05c1.54-12,2.92-24.18,3.39-36.33.15-3.85.2-7.68.11-11.53-.74,10.56-2,21.06-3.36,31.56-1.49,11.94-2.77,23.92-4.53,35.82a95.41,95.41,0,0,1-2.54,12.63c4.36-10,5.57-21.38,6.95-32.15Zm-11.53,12.76c1.24-5.81,2.2-11.69,3-17.57,1.62-11.9,3-23.88,3.67-35.88.25-4.32.38-8.66.24-13-1,10.2-2.28,20.35-3.53,30.52-1.48,12-2.83,24.1-4.65,36.09a118.79,118.79,0,0,1-2.66,13.6A82.16,82.16,0,0,0,272.87,108.81Zm-12.33,35.53c.81.18,1.62.32,2.44.44-7-3.77-14.16-10.5-16-17.86-1.49-5.87-1.52-12.08-.77-19.22,1.23.12,2.45.29,3.66.52-.16,3.58-.33,7.17-.21,10.76a23.78,23.78,0,0,0,1.17,7.1A37.72,37.72,0,0,0,253,130.9a36.68,36.68,0,0,1-1.42-4.94,23.47,23.47,0,0,1-.17-7c.35-3.38,1-6.72,1.59-10.06a96.76,96.76,0,0,1,16.84,6.47,125.55,125.55,0,0,0-10.47-6.93,56.34,56.34,0,0,0-12.57-5.33h0L246,103c-4.78-.8-9.61-1.39-14.44-1.87-3.87-.39-7.79-.57-11.65-1.08-.28,2-.54,3.95-.72,5.94-.15-1.61-.25-3.21-.26-4.83-.08-11.79,1.57-23.66,3.11-35.33,1.39-10.56,3.08-21.28,6.66-31.35-.17,1.31-.39,2.62-.56,3.93v.22c1.28-.59,2.61-1.13,3.94-1.61a66.09,66.09,0,0,1,16.53-3.82,31.5,31.5,0,0,1,8,0c.36-1.83.75-3.52,1.18-5,2-7,6.62-5.34,11.83-4.28a29.61,29.61,0,0,0-9.18-3.72,27.37,27.37,0,0,0-3.73-.35,10.47,10.47,0,0,0-8,8,11.85,11.85,0,0,1,3.21-7.92c-1.29.07-2.59.16-3.91.3l-1.35.17c-3.65,1.27-5.82,4.87-6.89,8.65a15.91,15.91,0,0,1,2.41-7.81,3.46,3.46,0,0,1,.22-.31q-2.92.48-5.91,1.14c-3,1.53-5.07,4.73-6,8a15,15,0,0,1,2.13-7.11c-1.84.47-3.7,1-5.55,1.58-2.67,1.77-4.35,5.21-5.31,8.12a19.87,19.87,0,0,1,1.94-7c-1.16.43-2.3.88-3.43,1.38l-.34.16A17.5,17.5,0,0,0,214,36a20.79,20.79,0,0,1,1.86-6.68,11.21,11.21,0,0,0-1.7,1.37A23.45,23.45,0,0,0,210,37a50.8,50.8,0,0,0-2,5.18c3.65-.55,7.3-1,11-1.44.61-1.85,1.27-3.68,2-5.49-.25,1.29-.5,2.6-.74,3.9-2.14,11.66-3.34,23.42-4.92,35.16-.81,6-1.73,12-2.67,17.95-.77,4.82-1.61,9.63-2.05,14.49-.14-1.43-.24-2.86-.26-4.31V101.3c-2.44.43-4.86.87-7.27,1.44-2.21.54-4.36,1.24-6.52,2-.5,5.79-.73,11.65.29,17.18a21,21,0,0,0,3,7.67,31.83,31.83,0,0,0,2.6,3.4,34,34,0,0,0,3,3,39.58,39.58,0,0,0,8.67,5.69c-.91-.69-1.81-1.41-2.68-2.17a31.14,31.14,0,0,1-8.35-11.41,26.7,26.7,0,0,1-1.39-15.43,27.71,27.71,0,0,0,2.88,13.86,28.94,28.94,0,0,0,8.44,9.73,46.62,46.62,0,0,0,8.2,4.84c-1-.84-2-1.72-3-2.66a29.42,29.42,0,0,1-8.82-25.77,25.47,25.47,0,0,0,.47,6.1,32.29,32.29,0,0,0,17.7,21.83c.89.43,1.78.82,2.69,1.21a35,35,0,0,1-2.8-2.49c-7.07-6.8-10.9-17.54-9.34-27.23a26.65,26.65,0,0,0,.58,6.3,33.28,33.28,0,0,0,10.65,18,54.69,54.69,0,0,0,5.16,3.66,30.22,30.22,0,0,0,4.69,2.35c-.66-.55-1.3-1.13-1.91-1.73A36.36,36.36,0,0,1,228.36,126a31.39,31.39,0,0,1-1.53-14.48,30.62,30.62,0,0,0,3,13.8,33.78,33.78,0,0,0,9.82,12.9,29.62,29.62,0,0,0,7.33,4.19c-.61-.56-1.2-1.14-1.77-1.75a38,38,0,0,1-8.35-15c-1.38-4.66-2.25-9.85-1.27-14.68a30.2,30.2,0,0,0,2.07,10.91,41.89,41.89,0,0,0,6.48,12,28.13,28.13,0,0,0,10.34,8.43,30.81,30.81,0,0,0,6.06,2ZM259,174a10.43,10.43,0,0,1-5.29-3.21,9.24,9.24,0,0,1-2.24-5.73,9.56,9.56,0,0,1,2-6.28,10.77,10.77,0,0,1,5.46-3.47c-5.76-1.22-10.2,4-10.35,9.39A10.36,10.36,0,0,0,251.8,172a8.18,8.18,0,0,0,7.23,2Zm1.39,33.08c3.24-5,.85-11.05-2.23-15.47,2,4.19,4.35,9.53,1.91,14-2.13,4.43-6.59,7.39-10.59,10a23.93,23.93,0,0,0,10.91-8.58Zm-2.36-1.32c2.79-4,.94-8.15-2.31-14.52a50.13,50.13,0,0,1-3.71-8.62c-.25.08-.51.14-.76.2l-.3.08q-.57.14-1.17.24l-.36.06c-.52.08-1.06.15-1.63.19h-.22v30.8c4.24-2.5,8.23-5.21,10.46-8.43ZM202.73,310.45A159.78,159.78,0,0,0,239,313.79a165.39,165.39,0,0,0,26-2.3,138.67,138.67,0,0,0,19.76-5.07c-21.91,4.63-44.3,5.51-66.6,3.64a149.45,149.45,0,0,1-24.43-3.92c-7.26-1.84-14.26-4.15-20.72-8C181.57,304.8,192.17,308.2,202.73,310.45Z" transform="translate(58.06 30.67)"/></g><g id="e52ca692-0a0b-4e8d-8ece-fd275526587e" data-name="a4c18d45-1264-4870-936e-bfa6628b0455"><path class="e8ac427e-01e6-4e87-9641-8eb672da7ba4" d="M218.54,158.47c25.35,32,33.35,72.94,34.24,110.29s-5.78,71.16-23.08,96.5c-17.35,25.8-44.92,43.14-78.72,63.6s-72.93,44-101.39,34.69c-28-9.34-45.36-51.59-65.82-90.28-20.94-38.69-45.4-74.27-41.4-105.84,3.56-32,35.58-60.48,68.49-91.17,32.46-30.68,66.26-63.59,103.62-68C152.28,103.33,193.63,126.45,218.54,158.47Z" transform="translate(58.06 30.67)"/><path class="ba71db18-5c02-41a2-a135-d59b9372c0ee" d="M-21.53,372.82A20.18,20.18,0,0,0-41.71,393a20.17,20.17,0,0,0,20.16,20.18A20.16,20.16,0,0,0-1.37,393v0A20.17,20.17,0,0,0-21.53,372.82Zm0,27.46A7.3,7.3,0,0,1-28.84,393a7.31,7.31,0,0,1,7.29-7.31A7.3,7.3,0,0,1-14.24,393h0a7.28,7.28,0,0,1-7.28,7.3Z" transform="translate(58.06 30.67)"/><path class="ba71db18-5c02-41a2-a135-d59b9372c0ee" d="M-21.53,341.12A12.44,12.44,0,0,0-34,353.56,12.44,12.44,0,0,0-21.53,366,12.44,12.44,0,0,0-9.09,353.56a12.44,12.44,0,0,0-12.44-12.44Zm0,16.94a4.5,4.5,0,0,1-4.5-4.5,4.51,4.51,0,0,1,4.5-4.5,4.5,4.5,0,0,1,4.5,4.5,4.48,4.48,0,0,1-4.5,4.45Z" transform="translate(58.06 30.67)"/><rect class="b215c82c-ab7a-4706-b4f9-ac28818e7c98" x="10.63" y="365.36" width="51.8" height="84.32" rx="3.94"/><path class="ba71db18-5c02-41a2-a135-d59b9372c0ee" d="M224.48,372.82A20.17,20.17,0,1,0,244.64,393v0A20.17,20.17,0,0,0,224.48,372.82Zm0,27.46a7.3,7.3,0,1,1,7.29-7.31h0a7.28,7.28,0,0,1-7.28,7.3Z" transform="translate(58.06 30.67)"/><path class="ba71db18-5c02-41a2-a135-d59b9372c0ee" d="M224.48,341.12a12.44,12.44,0,1,0,12.44,12.44,12.44,12.44,0,0,0-12.44-12.44Zm0,16.94a4.48,4.48,0,1,0,0-.05Z" transform="translate(58.06 30.67)"/><rect class="b215c82c-ab7a-4706-b4f9-ac28818e7c98" x="256.64" y="365.36" width="51.8" height="84.32" rx="3.94"/><line class="e21f997d-92bd-4392-9a0e-0ec4a921579d" x1="84.27" y1="169.94" x2="84.27" y2="183.1"/><line class="e21f997d-92bd-4392-9a0e-0ec4a921579d" x1="90.85" y1="176.52" x2="77.69" y2="176.52"/><line class="e21f997d-92bd-4392-9a0e-0ec4a921579d" x1="55.48" y1="250.57" x2="55.48" y2="259.62"/><line class="e21f997d-92bd-4392-9a0e-0ec4a921579d" x1="60" y1="255.09" x2="50.95" y2="255.09"/><line class="e21f997d-92bd-4392-9a0e-0ec4a921579d" x1="254.59" y1="163.36" x2="254.59" y2="172.41"/><line class="e21f997d-92bd-4392-9a0e-0ec4a921579d" x1="259.11" y1="167.88" x2="250.06" y2="167.88"/><line class="e21f997d-92bd-4392-9a0e-0ec4a921579d" x1="200.28" y1="374.81" x2="200.28" y2="383.86"/><line class="e21f997d-92bd-4392-9a0e-0ec4a921579d" x1="204.81" y1="379.33" x2="195.76" y2="379.33"/><line class="e21f997d-92bd-4392-9a0e-0ec4a921579d" x1="244.3" y1="243.16" x2="244.3" y2="253.86"/><line class="e21f997d-92bd-4392-9a0e-0ec4a921579d" x1="249.65" y1="248.51" x2="238.95" y2="248.51"/><line class="e21f997d-92bd-4392-9a0e-0ec4a921579d" x1="271.04" y1="168.29" x2="271.04" y2="178.99"/><line class="e21f997d-92bd-4392-9a0e-0ec4a921579d" x1="276.39" y1="173.64" x2="265.69" y2="173.64"/><path class="e21f997d-92bd-4392-9a0e-0ec4a921579d" d="M-22.3,187.4a3.7,3.7,0,0,1-3.7,3.72,3.71,3.71,0,0,1-3.72-3.7A3.72,3.72,0,0,1-26,183.7h0A3.71,3.71,0,0,1-22.3,187.4Z" transform="translate(58.06 30.67)"/><path class="e21f997d-92bd-4392-9a0e-0ec4a921579d" d="M170.2,328.51a3.71,3.71,0,1,1-3.72-3.7h0A3.71,3.71,0,0,1,170.2,328.51Z" transform="translate(58.06 30.67)"/><path class="e21f997d-92bd-4392-9a0e-0ec4a921579d" d="M230.26,205.5a3.71,3.71,0,1,1-3.72-3.7h0A3.71,3.71,0,0,1,230.26,205.5Z" transform="translate(58.06 30.67)"/><circle class="e21f997d-92bd-4392-9a0e-0ec4a921579d" cx="55.48" cy="153.89" r="2.88"/><circle class="e21f997d-92bd-4392-9a0e-0ec4a921579d" cx="97.44" cy="358.76" r="2.88"/><circle class="e21f997d-92bd-4392-9a0e-0ec4a921579d" cx="30.79" cy="288.01" r="2.88"/><path class="ba71db18-5c02-41a2-a135-d59b9372c0ee" d="M70.11,411.35c-2-8.92-1.5-18,5-27.27a71.83,71.83,0,0,1,11.43-12.7V325.61c-5.4-.55-8.85-5.89-8.85-13.86h0c0-2.9,0-7.75.43-13.43h0c.12-2.87.25-5.64.35-7.77L77,290.07a48.76,48.76,0,0,1-16.62-9.18,37.23,37.23,0,0,1-3.44-3.44A38.12,38.12,0,0,1,54,273.59a25.34,25.34,0,0,1-3.59-9.3c-1.16-6.43-.83-12.78-.27-19S51.7,233,52.7,227s2-11.94,3.06-17.84,2.11-11.67,3.38-17.37a82.58,82.58,0,0,1,5.22-16.61,28.14,28.14,0,0,1,4.89-7.32,16.58,16.58,0,0,1,3.64-2.71,38.77,38.77,0,0,1,3.76-1.88,90.71,90.71,0,0,1,15-4.82,113.63,113.63,0,0,1,14.43-2.49c2.35-.24,4.67-.4,7-.42a38,38,0,0,1,6.83.5,28.06,28.06,0,0,1,6.2,2,45.35,45.35,0,0,1,5.32,2.87,69.88,69.88,0,0,1,15.13,12.94,46.55,46.55,0,0,1,7.32,10.7,23.5,23.5,0,0,1,1.31,3.35l.3,1.11h0l.23,1.21c.09.39.16.88.23,1.45s.16,1.25.21,2a85.39,85.39,0,0,1,0,10.85l-7.09-4.83,6.81,9.15c-.12,1.48-.25,3-.41,4.66l-7.39-4.86,6.94,9.28c-.15,1.41-.32,2.87-.5,4.36l-7.43-4.69,6.9,9.17c-.18,1.38-.35,2.79-.53,4.22l-7.36-4.43,6.79,9c-.18,1.36-.35,2.74-.54,4.14l-7.24-4.15,6.64,8.7c-.19,1.34-.38,2.7-.57,4.07l-7.06-3.82,6.39,8.32c-.21,1.34-.42,2.68-.65,4l-6.73-3.4,6,7.7c-.26,1.36-.53,2.74-.82,4.12l-6.14-2.87,5.25,6.72c-.3,1.25-.64,2.5-1,3.76a51.46,51.46,0,0,1-2.79,7.62,26.91,26.91,0,0,1-2.1,3.74c-.22.31-.4.6-.66.92s-.52.67-.74.9l-.34.37-.18.19-.27.27a8.47,8.47,0,0,1-1,.79,25,25,0,0,1-8.19,3.49c-1.05.28-2.12.52-3.19.74-.36,1.49-1,4.07-1.69,6.95a13.91,13.91,0,0,1-.46,17.29,11,11,0,0,1-6.59,3.73,14.58,14.58,0,0,1-1.46,1.86c.42,3,2,6.18,3.75,9.53,3.21,6.31,7.21,14.15,1.88,21.85-3.71,5.36-10,9-16.1,12.58l-.2.12v60.18l3.8-15.85c33.84,2.18,59.45,12.38,59.45,24.63v8.82c0,13.85-32.69,25.07-73,25.07s-73-11.22-73-25.07V434.7C23.3,424.12,42.7,415,70.11,411.35Zm5-23.92A29.76,29.76,0,0,0,71,399.3c.59-1.62,1.07-3.27,1.71-4.88a52.22,52.22,0,0,1,3.15-6.25c1.92-3.35,4.47-6.32,6.33-9.7A72.31,72.31,0,0,0,75.16,387.43Zm5.57.58c-5.28,7.51-5.68,14.88-3.8,22.57,3.13-.29,6.35-.52,9.63-.67V380.86A64.76,64.76,0,0,0,80.7,388Zm1.13-74.68a24.31,24.31,0,0,0,2,6.11,25.73,25.73,0,0,1-1-5.78,34.93,34.93,0,0,1,.73-7.13c.68-3.35,1.45-6.67,2.24-10l11.74.16c.43,3.95.86,7.9,1.51,11.82a33.41,33.41,0,0,0,2.34,8.08,24.93,24.93,0,0,0,3.71,5.7,24.1,24.1,0,0,1-3.8-13.53c-.1-4,.09-8,.27-12h0c.15-3.26.33-6.43.43-8.21H82.5c-.07,1.41-.17,3.49-.28,5.87-.28,3.8-.56,7.6-.7,11.4a34.94,34.94,0,0,0,.34,7.51ZM92.7,432.59a1,1,0,0,0,2,0l-.29-45.47q-.18-37-.25-74.09V300.12a284.48,284.48,0,0,0-2,32.88C92,345.67,92,358.34,92,371c-.07,12.48,0,25,.22,37.45.08,5.49.2,11,.29,16.49,0,2.23.1,4.46.16,6.7A3.86,3.86,0,0,1,92.7,432.59ZM54.35,241.43c2,0,4,0,6,.07,2.56.18,5.09.48,7.64.8q0-4.22.24-8.43c-2.1.45-4.19.91-6.27,1.47-2.42.65-4.76,1.49-7.11,2.34C54.67,238.93,54.51,240.18,54.35,241.43ZM55.51,233c2-.09,4.1-.14,6.15-.07,2.2.1,4.39.28,6.58.48q.26-4.08.67-8.14a123.37,123.37,0,0,0-12.83,4.09Zm1.37-8.42c4-.19,8-.17,12.1,0,.28-2.68.59-5.36.93-8-4.21,1.27-8.33,2.7-12.42,4.38-.21,1.18-.41,2.41-.61,3.62Zm2.1-12v-.09c-.21,1.22-.43,2.45-.64,3.67,3.9-.26,7.78-.34,11.68-.29.34-2.65.69-5.3,1-7.94-4.07,1.36-8.07,2.87-12,4.61Zm1.5-8.59c-.23,1.23-.45,2.47-.68,3.71,3.78-.34,7.55-.52,11.34-.59q.51-4,1.17-7.93c-4,1.53-7.9,3.15-11.79,5a1.72,1.72,0,0,0,0-.18Zm.9-4.77c3.69-.4,7.37-.68,11.08-.87.47-2.72,1-5.43,1.63-8.12-4,1.71-8,3.5-12,5.45-.24,1.13-.48,2.32-.71,3.46ZM64.1,187q-.49,1.84-.93,3.72c3.69-.48,7.37-.86,11.08-1.17q1-4.4,2.44-8.69c-4.24,1.93-8.44,3.94-12.59,6.1ZM128,166.68a7.56,7.56,0,0,0-4.73-.59c-2.82.87-3.91,4.58-4,7.22,1.5-1.71,2.14-4.78,4.25-5.84,1.18-.59,2.74-.3,4-.08s2.22.43,3.34.59c-.05-.35-2.59-1.24-2.86-1.34Zm-1.89,16.69a38.16,38.16,0,0,0-11.73-5.67h0c-9.43-.85-18.84.92-28.29.79-.37,3-.73,5.92-1.07,8.88.41-.25,2.09-1,2.26-1.06,1.15-.46,2.32-.84,3.5-1.21a69.84,69.84,0,0,1,8.16-2,46.12,46.12,0,0,1,14.4-.77c.35,0,.71.11,1.06.18a33.06,33.06,0,0,1,10.79,3.21,89.45,89.45,0,0,1,11.4,6.65,92.11,92.11,0,0,0-10.48-9Zm-9.68,55.41a57.12,57.12,0,0,0-9.79-3.91v-.08c-4.86-.85-9.83-1.22-14.74-1.61-2.53-.21-5.07-.38-7.6-.57l-3.42-.24c-.08,0-1.22-.15-1.76-.26a.7.7,0,0,1-.05.31c-.45,2.83-.92,5.66-1.33,8.51,9-3.08,19.16-3.14,28.45-1.43h.16l.71.07a30.4,30.4,0,0,1,4.83.88c6.32,1.61,12.12,4.3,17.94,7.16a88.64,88.64,0,0,0-13.41-8.86Zm-35.87-7.35c1.12-.36,2.25-.66,3.39-.91a60.19,60.19,0,0,1,21.93-.81c.69.11,1.37.24,2,.38h.51a36.59,36.59,0,0,1,4.67.87c6.31,1.52,12.13,4.48,17.85,7.44a83.58,83.58,0,0,0-13.21-9.07h0l-.21-.1.2.1a53.35,53.35,0,0,0-9.49-3.9v-.14c-2.81-.51-5.72-.66-8.53-.89-4.76-.37-9.53-.57-14.3-.81-1.24-.07-2.5-.12-3.74-.22a5.39,5.39,0,0,1-1.19-.2c-.43,2.87-.88,5.74-1.33,8.61a12.43,12.43,0,0,1,1.45-.39Zm0-8.59a47.11,47.11,0,0,1,7-1.93A58.36,58.36,0,0,1,105.1,220a36.73,36.73,0,0,1,3.9.6v-.07l.46.06a37.19,37.19,0,0,1,5.13,1c6.18,1.53,11.89,4.61,17.44,7.64A80.3,80.3,0,0,0,119,220H119c-.33-.18-.23-.12-.07,0a52.21,52.21,0,0,0-9.22-3.89v-.15a65.38,65.38,0,0,0-8.39-.75c-4.93-.26-9.87-.37-14.8-.52-1.3,0-2.59-.06-3.89-.15a2.83,2.83,0,0,1-.91-.18q-.59,4.32-1.23,8.62Zm1.61-9.11a52,52,0,0,1,7.23-2,60.21,60.21,0,0,1,17.2-1.16,30.24,30.24,0,0,1,3.8.55v-.07h0a7.5,7.5,0,0,1,1.06.14c1.59.29,3.14.58,4.69,1,6.07,1.56,11.65,4.76,17,7.84a78.58,78.58,0,0,0-12.79-9.48c.14.08.22.12-.06,0s-.22-.12-.06,0a49.3,49.3,0,0,0-9.33-4v-.17a60.33,60.33,0,0,0-9.31-.6c-5.27-.13-10.54,0-15.81-.17h-2a2.84,2.84,0,0,1-.91-.11c-.35,2.86-.7,5.71-1.09,8.56a2.79,2.79,0,0,1,.4-.37Zm2.67-9.5a59.38,59.38,0,0,1,7.72-2.06,58.39,58.39,0,0,1,16.47-1q1.26.12,2.49.36a.21.21,0,0,0,0-.11c.43.12.86.19,1,.22a44.51,44.51,0,0,1,5,1.09c6,1.71,11.5,4.89,16.82,8.1a77.32,77.32,0,0,0-12.59-9.68c.12.07.18.1-.08,0s-.24-.13-.1,0a46.59,46.59,0,0,0-9.55-4.16v-.11c-.92-.1-1.88-.08-2.78-.24-2.69-.17-5.37-.2-8-.2-5.34,0-10.68.27-16,.19A3.4,3.4,0,0,1,84,196.4q-.51,4.36-1,8.75a10.91,10.91,0,0,1,1.86-1Zm-.63-8.2a16.12,16.12,0,0,1,3.07-1.19A69.55,69.55,0,0,1,95,192.77a51.86,51.86,0,0,1,15.76-1.11c.59.06,1.18.14,1.76.25v-.07a10.5,10.5,0,0,0,1.23.2,22.38,22.38,0,0,1,4.72,1.05c6.11,1.81,11.62,5.07,17,8.47a74.51,74.51,0,0,0-12.41-9.9c.12.06.18.1-.07,0a41.37,41.37,0,0,0-5.66-3c-1.39-.55-2.79-1-4.23-1.41a.14.14,0,0,0,0-.09c-1-.13-2.12-.14-3.15-.2-3-.15-6-.08-8.94,0-3.13.13-6.27.27-9.4.37-1.36,0-2.73.08-4.1.1a8.13,8.13,0,0,1-2.51,0c-.34,2.92-.67,5.83-1,8.75a.94.94,0,0,1,.26-.14Zm59.49,41.09c1.58-12.32,3-24.71,3.48-37.13q.23-5.9.1-11.78c-.75,10.79-2.08,21.52-3.43,32.25-1.52,12.2-2.83,24.45-4.63,36.61a97.93,97.93,0,0,1-2.61,12.9C141,259.65,142.28,248.12,143.7,237.12Zm-11.8,13c1.27-5.93,2.26-11.93,3.08-17.94,1.66-12.17,3.05-24.41,3.75-36.67.26-4.42.39-8.85.24-13.28-1,10.42-2.33,20.8-3.6,31.19-1.52,12.3-2.89,24.63-4.76,36.88a115.27,115.27,0,0,1-2.71,13.9,83,83,0,0,0,4-14.08Zm-12.6,36.32c.83.18,1.66.32,2.5.44-7.14-3.84-14.47-10.72-16.38-18.24-1.53-6-1.55-12.35-.79-19.65,1.26.13,2.51.31,3.74.53-.16,3.67-.34,7.33-.21,11a24.53,24.53,0,0,0,1.19,7.26,38.54,38.54,0,0,0,2.18,4.92,38.36,38.36,0,0,1-1.46-5.05,24.14,24.14,0,0,1-.17-7.15c.36-3.45,1-6.87,1.63-10.28a99.1,99.1,0,0,1,17.17,6.59,127.66,127.66,0,0,0-10.7-7.08,57,57,0,0,0-12.85-5.44v0l-.79-.15c-4.89-.82-9.83-1.42-14.76-1.92-4-.39-8-.57-11.91-1.1-.28,2-.55,4-.73,6.07-.16-1.64-.26-3.28-.27-4.93-.08-12,1.61-24.18,3.18-36.1,1.42-10.79,3.15-21.76,6.81-32-.17,1.34-.41,2.68-.57,4v.22c1.32-.61,2.67-1.16,4-1.64A67.67,67.67,0,0,1,107,172.77a33.17,33.17,0,0,1,8.21,0c.37-1.87.77-3.6,1.21-5.16,2-7.2,6.76-5.45,12.08-4.37a29.91,29.91,0,0,0-9.37-3.8,28.72,28.72,0,0,0-3.82-.37,10.75,10.75,0,0,0-8.18,8.17,12.22,12.22,0,0,1,3.29-8.11c-1.32.08-2.65.17-4,.31l-1.38.18c-3.73,1.29-5.94,5-7,8.84a16.39,16.39,0,0,1,2.45-7.9l.22-.32q-3,.49-6,1.17c-3.11,1.56-5.18,4.83-6.13,8.19a15.41,15.41,0,0,1,2.18-7.26c-1.88.48-3.78,1-5.66,1.61-2.73,1.81-4.46,5.32-5.44,8.29a20.53,20.53,0,0,1,2-7.11c-1.17.44-2.34.91-3.5,1.42l-.35.16a18.1,18.1,0,0,0-6.07,9.08,21.4,21.4,0,0,1,1.9-6.83,11.64,11.64,0,0,0-1.73,1.4,24.28,24.28,0,0,0-4.21,6.38A53.31,53.31,0,0,0,65.61,182q5.61-.83,11.22-1.46c.63-1.89,1.31-3.77,2.07-5.62-.25,1.33-.51,2.66-.76,4-2.18,11.92-3.41,23.94-5,35.94-.82,6.12-1.76,12.23-2.73,18.34-.78,4.92-1.64,9.84-2.09,14.81-.14-1.47-.25-2.93-.27-4.41v-1.14c-2.5.43-5,.88-7.43,1.47-2.26.55-4.46,1.26-6.66,2-.52,5.91-.75,11.91.29,17.55a21.64,21.64,0,0,0,3,7.84,33.34,33.34,0,0,0,2.66,3.48A34.43,34.43,0,0,0,63,277.9a40.3,40.3,0,0,0,8.85,5.82c-.93-.71-1.84-1.44-2.73-2.22a31.78,31.78,0,0,1-8.53-11.66,27.35,27.35,0,0,1-1.42-15.77,28.37,28.37,0,0,0,2.94,14.17,29.58,29.58,0,0,0,8.59,9.88,47.4,47.4,0,0,0,8.38,4.94C78,282.21,77,281.3,76,280.35A30.12,30.12,0,0,1,67,254a26.12,26.12,0,0,0,.48,6.24,33,33,0,0,0,18.09,22.3c.91.44,1.82.85,2.74,1.24-1-.8-1.93-1.65-2.86-2.54-7.22-6.95-11.14-17.93-9.53-27.83a27.88,27.88,0,0,0,.58,6.44,33.09,33.09,0,0,0,6.23,13.61,31.47,31.47,0,0,0,4.58,4.86,57.31,57.31,0,0,0,5.28,3.75,32,32,0,0,0,4.79,2.4c-.67-.57-1.33-1.15-2-1.77a37,37,0,0,1-9.11-15,32.08,32.08,0,0,1-1.57-14.8,31.42,31.42,0,0,0,3,14.11,34.42,34.42,0,0,0,10,13.18,30.13,30.13,0,0,0,7.49,4.29c-.63-.58-1.23-1.17-1.81-1.79a38.75,38.75,0,0,1-8.53-15.36c-1.41-4.77-2.3-10.07-1.31-15a31.32,31.32,0,0,0,2.12,11.16,43.41,43.41,0,0,0,6.62,12.23,28.91,28.91,0,0,0,10.57,8.62,31.38,31.38,0,0,0,6.46,2.07Zm-1.6,30.3a10.64,10.64,0,0,1-5.41-3.28A9.57,9.57,0,0,1,110,307.6a9.82,9.82,0,0,1,2.06-6.41,11,11,0,0,1,5.57-3.55c-5.89-1.24-10.42,4.09-10.57,9.59a10.59,10.59,0,0,0,3.25,7.45A8.38,8.38,0,0,0,117.7,316.74Zm1.42,33.8c3.31-5.11.88-11.29-2.27-15.8,2.05,4.27,4.44,9.73,1.94,14.35-2.17,4.53-6.73,7.56-10.81,10.2,4.41-1.86,8.57-4.72,11.18-8.75Zm-2.41-1.34c2.85-4.13,1-8.34-2.36-14.85a51.11,51.11,0,0,1-3.79-8.8c-.25.08-.52.14-.78.21l-.31.08c-.38.09-.78.17-1.19.24l-.37.06c-.53.08-1.09.15-1.67.2H106v31.5c4.37-2.59,8.44-5.35,10.72-8.64Zm-56.54,107a164.82,164.82,0,0,0,37,3.41,167.38,167.38,0,0,0,26.54-2.35,141.68,141.68,0,0,0,20.19-5.18c-22.4,4.74-45.27,5.63-68.06,3.72a153.16,153.16,0,0,1-25-4c-7.42-1.88-14.57-4.24-21.17-8.19,8.92,6.78,19.75,10.26,30.54,12.56Z" transform="translate(58.06 30.67)"/></g></svg>