<svg xmlns="http://www.w3.org/2000/svg" viewBox="0 0 403.84 456.39"><defs><style>.ac64e569-4272-4727-a398-8436c8f5876b,.b9f076d3-3f2a-4ef9-907b-b429e5c70427{fill:#ffc500;}.b9f076d3-3f2a-4ef9-907b-b429e5c70427,.bbd9fb97-810c-4181-86b1-f2cc52fed2a9,.e013e05d-4ea3-4c05-8c34-e927f87364cd{opacity:0.2;}.abc18d79-b5fe-4432-9451-acd5052f1e23,.bbd9fb97-810c-4181-86b1-f2cc52fed2a9{fill:#263238;}.a301c6e4-b486-42bb-aca4-b8d8f2bac932,.a3e1a867-6b4b-4a65-9ac0-39c7f9c639e0{fill:none;stroke:#263238;}.a301c6e4-b486-42bb-aca4-b8d8f2bac932{stroke-miterlimit:10;}.a3e1a867-6b4b-4a65-9ac0-39c7f9c639e0{stroke-linecap:round;stroke-linejoin:round;}.ac64e569-4272-4727-a398-8436c8f5876b{opacity:0.7;}</style></defs><g id="e83bd5e9-5a79-42c8-b29b-9e3048f1a5c0" data-name="Layer 8"><path class="b9f076d3-3f2a-4ef9-907b-b429e5c70427" d="M371.49,92.94c24.81,31.33,32.64,71.37,33.51,107.92s-5.65,69.63-22.63,94.44c-17,25.24-43.95,42.21-77,62.23S234,400.61,206.13,391.47c-27.42-9.14-44.39-50.48-64.41-88.34-20.45-37.86-44.39-72.68-40.47-103.57,3.48-31.34,34.81-59.19,67-89.21,31.76-30,64.84-62.23,101.39-66.59C306.65,39,347.12,61.61,371.49,92.94Z" transform="translate(-1.24 -43.12)"/><g class="e013e05d-4ea3-4c05-8c34-e927f87364cd"><path class="abc18d79-b5fe-4432-9451-acd5052f1e23" d="M136.57,302.69a19.73,19.73,0,1,0,19.74,19.73A19.73,19.73,0,0,0,136.57,302.69Zm0,26.87a7.14,7.14,0,1,1,7.14-7.14A7.14,7.14,0,0,1,136.57,329.56Z" transform="translate(-1.24 -43.12)"/><path class="abc18d79-b5fe-4432-9451-acd5052f1e23" d="M136.57,271.62a12.18,12.18,0,1,0,12.18,12.18A12.17,12.17,0,0,0,136.57,271.62Zm0,16.58a4.41,4.41,0,1,1,4.41-4.4A4.4,4.4,0,0,1,136.57,288.2Z" transform="translate(-1.24 -43.12)"/><rect class="a301c6e4-b486-42bb-aca4-b8d8f2bac932" x="109.99" y="222.26" width="50.69" height="82.51" rx="3.94"/></g><g class="e013e05d-4ea3-4c05-8c34-e927f87364cd"><path class="abc18d79-b5fe-4432-9451-acd5052f1e23" d="M377.31,302.69A19.73,19.73,0,1,0,397,322.42,19.73,19.73,0,0,0,377.31,302.69Zm0,26.87a7.14,7.14,0,1,1,7.14-7.14A7.14,7.14,0,0,1,377.31,329.56Z" transform="translate(-1.24 -43.12)"/><path class="abc18d79-b5fe-4432-9451-acd5052f1e23" d="M377.31,271.62a12.18,12.18,0,1,0,12.17,12.18A12.18,12.18,0,0,0,377.31,271.62Zm0,16.58a4.41,4.41,0,1,1,4.4-4.4A4.41,4.41,0,0,1,377.31,288.2Z" transform="translate(-1.24 -43.12)"/><rect class="a301c6e4-b486-42bb-aca4-b8d8f2bac932" x="350.72" y="222.26" width="50.69" height="82.51" rx="3.94"/></g><line class="a3e1a867-6b4b-4a65-9ac0-39c7f9c639e0" x1="182.05" y1="31.03" x2="182.05" y2="43.91"/><line class="a3e1a867-6b4b-4a65-9ac0-39c7f9c639e0" x1="188.49" y1="37.47" x2="175.61" y2="37.47"/><line class="a3e1a867-6b4b-4a65-9ac0-39c7f9c639e0" x1="153.87" y1="109.93" x2="153.87" y2="118.79"/><line class="a3e1a867-6b4b-4a65-9ac0-39c7f9c639e0" x1="158.3" y1="114.36" x2="149.45" y2="114.36"/><line class="a3e1a867-6b4b-4a65-9ac0-39c7f9c639e0" x1="348.72" y1="24.58" x2="348.72" y2="33.44"/><line class="a3e1a867-6b4b-4a65-9ac0-39c7f9c639e0" x1="353.14" y1="29.01" x2="344.29" y2="29.01"/><line class="a3e1a867-6b4b-4a65-9ac0-39c7f9c639e0" x1="295.58" y1="231.5" x2="295.58" y2="240.36"/><line class="a3e1a867-6b4b-4a65-9ac0-39c7f9c639e0" x1="300.01" y1="235.93" x2="291.15" y2="235.93"/><line class="a3e1a867-6b4b-4a65-9ac0-39c7f9c639e0" x1="338.65" y1="102.68" x2="338.65" y2="113.15"/><line class="a3e1a867-6b4b-4a65-9ac0-39c7f9c639e0" x1="343.88" y1="107.92" x2="333.42" y2="107.92"/><line class="a3e1a867-6b4b-4a65-9ac0-39c7f9c639e0" x1="364.82" y1="29.42" x2="364.82" y2="39.88"/><line class="a3e1a867-6b4b-4a65-9ac0-39c7f9c639e0" x1="370.05" y1="34.65" x2="359.58" y2="34.65"/><path class="a3e1a867-6b4b-4a65-9ac0-39c7f9c639e0" d="M135.79,121.25a3.63,3.63,0,1,1-3.63-3.62A3.62,3.62,0,0,1,135.79,121.25Z" transform="translate(-1.24 -43.12)"/><path class="a3e1a867-6b4b-4a65-9ac0-39c7f9c639e0" d="M324.19,259.33a3.63,3.63,0,1,1-3.63-3.62A3.62,3.62,0,0,1,324.19,259.33Z" transform="translate(-1.24 -43.12)"/><path class="a3e1a867-6b4b-4a65-9ac0-39c7f9c639e0" d="M383,139a3.62,3.62,0,1,1-3.62-3.62A3.63,3.63,0,0,1,383,139Z" transform="translate(-1.24 -43.12)"/><circle class="a3e1a867-6b4b-4a65-9ac0-39c7f9c639e0" cx="153.87" cy="15.33" r="2.82"/><circle class="a3e1a867-6b4b-4a65-9ac0-39c7f9c639e0" cx="194.94" cy="215.8" r="2.82"/><circle class="a3e1a867-6b4b-4a65-9ac0-39c7f9c639e0" cx="129.72" cy="146.56" r="2.82"/><path class="bbd9fb97-810c-4181-86b1-f2cc52fed2a9" d="M226.25,340.4c-2-8.73-1.46-17.63,4.91-26.7a70,70,0,0,1,11.19-12.42V256.49c-5.29-.54-8.67-5.76-8.66-13.56v0h0c0-2.84,0-7.59.42-13.14v0c.12-2.81.25-5.52.35-7.61-.5-.15-1-.3-1.49-.47a47.32,47.32,0,0,1-16.26-9,35,35,0,0,1-6.25-7.14,24.74,24.74,0,0,1-3.51-9.11c-1.13-6.28-.81-12.49-.26-18.56s1.51-12,2.48-17.9,2-11.67,3.05-17.42,2.06-11.42,3.3-17a79.31,79.31,0,0,1,5.12-16.25,26.86,26.86,0,0,1,4.77-7.17A16.4,16.4,0,0,1,229,99.46a37.13,37.13,0,0,1,3.68-1.84,87.92,87.92,0,0,1,14.68-4.71,110.29,110.29,0,0,1,14.12-2.44c2.3-.24,4.56-.39,6.8-.41a36,36,0,0,1,6.68.49,27.25,27.25,0,0,1,6.06,2,44.2,44.2,0,0,1,5.21,2.8A68.43,68.43,0,0,1,301,108a46.22,46.22,0,0,1,7.17,10.47,25.75,25.75,0,0,1,1.28,3.28l.29,1.08v0l.23,1.18c.08.39.15.86.22,1.42s.16,1.22.2,2a83.37,83.37,0,0,1,0,10.62l-6.94-4.73,6.66,8.95c-.11,1.45-.25,3-.4,4.56l-7.23-4.75,6.79,9.08c-.15,1.38-.31,2.81-.49,4.27l-7.27-4.59,6.75,9c-.17,1.35-.34,2.73-.52,4.13l-7.2-4.34,6.64,8.78c-.17,1.32-.34,2.67-.52,4l-7.08-4,6.49,8.51c-.18,1.31-.37,2.64-.56,4l-6.91-3.73,6.26,8.14c-.2,1.3-.42,2.62-.64,4l-6.58-3.33,5.83,7.54c-.25,1.33-.51,2.67-.8,4l-6-2.81,5.14,6.57c-.31,1.22-.63,2.45-1,3.68a51,51,0,0,1-2.73,7.46,26.1,26.1,0,0,1-2.05,3.66c-.22.3-.39.59-.65.9s-.51.66-.72.88l-.34.36-.17.19-.27.26a8.25,8.25,0,0,1-.93.77,24.34,24.34,0,0,1-8,3.42c-1,.27-2.08.51-3.13.73-.35,1.45-1,4-1.66,6.8a13.53,13.53,0,0,1-.44,16.88,10.71,10.71,0,0,1-6.45,3.65,15.56,15.56,0,0,1-1.43,1.83c.41,2.92,2,6,3.67,9.32,3.14,6.17,7.05,13.85,1.84,21.38-3.63,5.24-9.79,8.84-15.75,12.32l-.21.12V354.7l3.73-15.51c33.11,2.14,58.17,12.11,58.17,24.1v8.64c0,13.54-32,24.52-71.44,24.52s-71.44-11-71.44-24.52v-8.64C180.45,352.85,199.46,343.93,226.25,340.4ZM231.19,317a29,29,0,0,0-4.08,11.61c.58-1.59,1-3.2,1.68-4.77a47.93,47.93,0,0,1,3.07-6.12c1.89-3.28,4.38-6.19,6.2-9.49A70.93,70.93,0,0,0,231.19,317Zm5.45.56c-5.17,7.35-5.56,14.57-3.71,22.09q4.59-.43,9.42-.65V310.56A60.67,60.67,0,0,0,236.64,317.55Zm1.11-73.07a23.89,23.89,0,0,0,2,6,24.34,24.34,0,0,1-1-5.67,33.31,33.31,0,0,1,.71-7c.67-3.28,1.42-6.53,2.19-9.78l11.49.15c.42,3.87.85,7.73,1.48,11.57a32.46,32.46,0,0,0,2.29,7.91,24,24,0,0,0,3.63,5.57A30.2,30.2,0,0,1,258,248a31.21,31.21,0,0,1-1.21-8c-.1-3.92.09-7.84.26-11.76h0c.15-3.19.33-6.29.43-8H238.37c-.07,1.37-.16,3.42-.27,5.74-.28,3.72-.55,7.44-.68,11.16A33.65,33.65,0,0,0,237.75,244.48Zm10.6,116.7a1,1,0,0,0,1.91,0L250,316.63q-.18-36.25-.24-72.5V231.55a276.62,276.62,0,0,0-1.91,32.17c-.12,12.4-.14,24.8-.2,37.19-.07,12.22,0,24.45.22,36.66.07,5.37.19,10.75.28,16.13,0,2.18.1,4.37.15,6.56A7.07,7.07,0,0,0,248.35,361.18ZM210.83,174.12c1.95,0,3.9,0,5.85.07,2.5.17,5,.46,7.48.77q0-4.11.23-8.24c-2.06.44-4.1.89-6.14,1.43-2.36.64-4.66,1.47-6.95,2.3C211.13,171.67,211,172.89,210.83,174.12Zm1.13-8.27c2-.09,4-.14,6-.07,2.16.1,4.3.28,6.44.47.17-2.66.39-5.31.66-8a122.15,122.15,0,0,0-12.56,4C212.33,163.47,212.15,164.66,212,165.85Zm1.34-8.24c4-.19,7.88-.16,11.85,0q.4-3.93.9-7.84c-4.12,1.25-8.15,2.64-12.15,4.28Zm2.06-11.79,0-.08c-.21,1.2-.42,2.39-.63,3.6,3.82-.27,7.61-.35,11.43-.29q.5-3.9,1-7.77C223.16,142.64,219.24,144.13,215.36,145.82Zm1.46-8.4-.66,3.63c3.7-.33,7.38-.51,11.09-.58q.51-3.89,1.15-7.76c-3.89,1.5-7.73,3.08-11.53,4.85C216.85,137.52,216.84,137.47,216.82,137.42Zm.88-4.66c3.61-.4,7.22-.67,10.85-.86.46-2.66,1-5.31,1.59-7.94-4,1.67-7.88,3.42-11.74,5.33C218.16,130.44,217.93,131.59,217.7,132.76Zm2.67-12c-.32,1.21-.62,2.42-.91,3.64,3.6-.47,7.21-.83,10.84-1.14.68-2.86,1.47-5.7,2.39-8.5C228.54,116.7,224.43,118.67,220.37,120.78Zm62.53-19.85a7.42,7.42,0,0,0-4.63-.57c-2.76.84-3.83,4.48-3.94,7,1.46-1.66,2.09-4.67,4.15-5.7,1.16-.59,2.68-.3,3.9-.08s2.17.41,3.27.58C285.65,101.9,283.16,101,282.9,100.93Zm-1.85,16.34a37.58,37.58,0,0,0-11.48-5.56h0c-9.23-.82-18.44.9-27.68.77-.37,2.9-.71,5.8-1,8.7.4-.25,2-1,2.21-1,1.12-.44,2.28-.82,3.43-1.18a68.38,68.38,0,0,1,8-2,45.07,45.07,0,0,1,14.09-.75c.35,0,.69.11,1,.17a32.43,32.43,0,0,1,10.56,3.14A88.14,88.14,0,0,1,291.3,126,90,90,0,0,0,281.05,117.27Zm-9.47,54.22a54.4,54.4,0,0,0-9.58-3.83v-.08c-4.76-.84-9.62-1.19-14.42-1.58-2.48-.2-5-.37-7.45-.55-1.11-.08-2.23-.15-3.34-.24-.08,0-1.2-.14-1.73-.25,0,.1,0,.2,0,.3-.44,2.77-.9,5.54-1.3,8.33,8.82-3,18.74-3.07,27.84-1.4l.15,0,.7.07a30.48,30.48,0,0,1,4.73.86c6.17,1.57,11.85,4.21,17.55,7a87.79,87.79,0,0,0-13.12-8.66Zm-35.1-7.2a31.21,31.21,0,0,1,3.32-.89,59,59,0,0,1,21.45-.79c.68.1,1.34.23,2,.37l.5,0a34.05,34.05,0,0,1,4.57.86c6.17,1.48,11.87,4.38,17.47,7.28a82.19,82.19,0,0,0-12.94-8.88c.18.09.34.17,0,0l-.21-.1.2.1a52.34,52.34,0,0,0-9.29-3.82l0-.13a81.21,81.21,0,0,0-8.35-.87c-4.65-.37-9.32-.57-14-.8-1.22-.06-2.44-.11-3.66-.21a5.86,5.86,0,0,1-1.16-.2q-.65,4.22-1.31,8.43A11.86,11.86,0,0,1,236.48,164.29Zm0-8.4a45.17,45.17,0,0,1,6.88-1.89,56.8,56.8,0,0,1,17.16-.91c1.31.13,2.57.33,3.82.58v-.07a2.86,2.86,0,0,0,.45.07,36.93,36.93,0,0,1,5,1c6.05,1.5,11.64,4.51,17.07,7.48a78.52,78.52,0,0,0-12.69-9.06c.13.07.22.11-.07,0s-.22-.12-.07,0a50.45,50.45,0,0,0-9-3.8c0-.05,0-.1,0-.15a63.24,63.24,0,0,0-8.21-.74c-4.83-.25-9.66-.36-14.49-.5-1.26,0-2.53-.07-3.8-.15a2.58,2.58,0,0,1-.89-.18c-.38,2.82-.79,5.63-1.21,8.44Zm1.57-8.92a48.36,48.36,0,0,1,7.08-2A58.65,58.65,0,0,1,262,143.83a28.73,28.73,0,0,1,3.72.54v-.07h0c.35,0,.69.09,1,.14,1.55.28,3.06.57,4.59,1,5.93,1.53,11.39,4.66,16.66,7.68a76.57,76.57,0,0,0-12.52-9.28c.13.08.22.12-.06,0s-.21-.12-.06,0a47.73,47.73,0,0,0-9.13-3.93.88.88,0,0,0,0-.16,58.09,58.09,0,0,0-9.11-.59c-5.16-.14-10.32,0-15.47-.17l-2,0a2.78,2.78,0,0,1-.9-.11q-.5,4.2-1.06,8.38A1.91,1.91,0,0,1,238.07,147Zm2.61-9.29a56.55,56.55,0,0,1,7.56-2,57.2,57.2,0,0,1,16.09-1c.83.08,1.64.2,2.44.35a.31.31,0,0,0,0-.1c.42.11.84.18,1,.21a41.92,41.92,0,0,1,4.85,1.07c5.89,1.68,11.26,4.79,16.46,7.93a75.05,75.05,0,0,0-12.32-9.48l-.08,0-.09-.05a45.55,45.55,0,0,0-9.35-4.06v-.12c-.9-.09-1.84-.07-2.72-.23-2.63-.17-5.25-.2-7.88-.19-5.23,0-10.45.26-15.68.18-.22,0-1.06,0-1.17-.13q-.49,4.29-1,8.56A10.37,10.37,0,0,1,240.68,137.68Zm-.61-8a14.62,14.62,0,0,1,3-1.18,71,71,0,0,1,7.57-2,51,51,0,0,1,15.43-1.09c.58.06,1.15.15,1.72.25v-.07a11.71,11.71,0,0,0,1.21.2,22.26,22.26,0,0,1,4.61,1c6,1.76,11.38,4.95,16.59,8.28a73,73,0,0,0-12.14-9.69l-.08-.05a40.92,40.92,0,0,0-5.53-2.89c-1.37-.54-2.74-1-4.14-1.39,0,0,0-.06,0-.09-1-.13-2.08-.14-3.08-.19-2.91-.15-5.84-.08-8.75,0-3.07.13-6.13.26-9.2.36l-4,.1a8.09,8.09,0,0,1-2.46,0l-1,8.57A.75.75,0,0,1,240.07,129.66Zm58.18,40.19c1.54-12,2.92-24.18,3.39-36.33.15-3.85.2-7.68.11-11.53-.74,10.56-2.05,21.06-3.36,31.56-1.49,11.94-2.77,23.92-4.53,35.82A95.15,95.15,0,0,1,291.3,202C295.66,192,296.87,180.62,298.25,169.85ZM286.7,182.61c1.24-5.81,2.2-11.69,3-17.57,1.62-11.9,3-23.88,3.67-35.88.25-4.32.38-8.66.24-13-1,10.2-2.28,20.35-3.53,30.52-1.48,12-2.83,24.1-4.65,36.09a118.37,118.37,0,0,1-2.66,13.6A82.24,82.24,0,0,0,286.7,182.61Zm-12.33,35.53c.81.18,1.62.32,2.44.44-7-3.77-14.16-10.5-16-17.86-1.49-5.87-1.52-12.08-.77-19.22,1.23.12,2.45.29,3.66.52-.16,3.58-.33,7.17-.21,10.76a23.78,23.78,0,0,0,1.17,7.1,37,37,0,0,0,2.13,4.82,36.68,36.68,0,0,1-1.42-4.94,23.46,23.46,0,0,1-.17-7c.35-3.38,1-6.72,1.59-10.06a96.33,96.33,0,0,1,16.84,6.47,125.55,125.55,0,0,0-10.47-6.93,56.08,56.08,0,0,0-12.57-5.33v0l-.77-.15c-4.78-.8-9.61-1.39-14.44-1.87-3.87-.39-7.79-.57-11.65-1.08-.28,2-.54,3.95-.72,5.94-.15-1.61-.25-3.21-.26-4.83-.08-11.79,1.57-23.66,3.11-35.33,1.39-10.56,3.08-21.28,6.66-31.35-.17,1.31-.39,2.62-.56,3.93l0,.22c1.28-.59,2.61-1.13,3.94-1.61a66.09,66.09,0,0,1,16.53-3.82,31.73,31.73,0,0,1,8,0c.36-1.83.75-3.52,1.18-5,2-7,6.62-5.34,11.83-4.28a29.63,29.63,0,0,0-9.18-3.72,28.32,28.32,0,0,0-3.73-.35,10.47,10.47,0,0,0-8,8,11.84,11.84,0,0,1,3.21-7.92c-1.29.07-2.59.16-3.91.3l-1.35.17c-3.65,1.27-5.82,4.87-6.89,8.65A16,16,0,0,1,256,95a3.46,3.46,0,0,1,.22-.31q-2.92.48-5.91,1.14c-3,1.53-5.07,4.73-6,8a15,15,0,0,1,2.13-7.11c-1.84.47-3.7,1-5.55,1.58-2.67,1.77-4.35,5.21-5.31,8.12a19.83,19.83,0,0,1,1.94-7c-1.16.43-2.3.88-3.43,1.38l-.34.16a17.5,17.5,0,0,0-5.94,8.88,20.79,20.79,0,0,1,1.86-6.68,10.93,10.93,0,0,0-1.7,1.37,23.39,23.39,0,0,0-4.12,6.25,49.36,49.36,0,0,0-2,5.18c3.65-.55,7.3-1,11-1.44q.91-2.77,2-5.49c-.25,1.29-.5,2.6-.74,3.9-2.14,11.66-3.34,23.42-4.92,35.16-.81,6-1.73,12-2.67,17.95-.77,4.82-1.61,9.63-2.05,14.49-.14-1.43-.24-2.86-.26-4.31,0-.37,0-.75,0-1.12-2.44.43-4.86.87-7.27,1.44-2.21.54-4.36,1.24-6.52,2-.5,5.79-.73,11.65.29,17.18a20.93,20.93,0,0,0,2.95,7.67,30.7,30.7,0,0,0,2.6,3.4,33,33,0,0,0,3,3,39.59,39.59,0,0,0,8.67,5.69c-.91-.69-1.81-1.41-2.68-2.17a31.22,31.22,0,0,1-8.35-11.41,26.7,26.7,0,0,1-1.39-15.43,27.71,27.71,0,0,0,2.88,13.86,29,29,0,0,0,8.44,9.73,47.21,47.21,0,0,0,8.2,4.84c-1-.84-2.05-1.72-3-2.66a29.44,29.44,0,0,1-8.82-25.77,25.51,25.51,0,0,0,.47,6.1,32.27,32.27,0,0,0,17.7,21.83c.89.43,1.78.82,2.69,1.21-1-.79-1.9-1.61-2.8-2.49-7.07-6.8-10.9-17.54-9.34-27.23a26.65,26.65,0,0,0,.58,6.3,32.07,32.07,0,0,0,6.17,13.28,31.54,31.54,0,0,0,4.48,4.76,54.69,54.69,0,0,0,5.16,3.66,30.22,30.22,0,0,0,4.69,2.35c-.66-.55-1.3-1.13-1.91-1.73a36.29,36.29,0,0,1-8.91-14.71,31.43,31.43,0,0,1-1.53-14.48,30.55,30.55,0,0,0,3,13.8,33.7,33.7,0,0,0,9.82,12.9,29.85,29.85,0,0,0,7.33,4.19c-.61-.56-1.2-1.14-1.77-1.75a38,38,0,0,1-8.35-15c-1.38-4.66-2.25-9.85-1.27-14.68a30.07,30.07,0,0,0,2.07,10.91,42.1,42.1,0,0,0,6.48,12,28.21,28.21,0,0,0,10.34,8.43A30.49,30.49,0,0,0,274.37,218.14Zm-1.51,29.67a10.41,10.41,0,0,1-5.29-3.21,9.22,9.22,0,0,1-2.24-5.73,9.54,9.54,0,0,1,2-6.28,10.83,10.83,0,0,1,5.46-3.47c-5.76-1.22-10.2,4-10.35,9.39a10.34,10.34,0,0,0,3.19,7.29A8.16,8.16,0,0,0,272.86,247.81Zm1.39,33.08c3.24-5,.85-11.05-2.23-15.47,2,4.19,4.35,9.53,1.91,14.05-2.13,4.43-6.59,7.39-10.59,10A23.94,23.94,0,0,0,274.25,280.89Zm-2.36-1.32c2.79-4,.94-8.15-2.31-14.52a49.91,49.91,0,0,1-3.71-8.62c-.25.08-.51.14-.76.2l-.3.08q-.57.14-1.17.24l-.36.06c-.52.08-1.06.15-1.63.19l-.22,0V288C265.67,285.5,269.66,282.79,271.89,279.57ZM216.56,384.25a160.4,160.4,0,0,0,36.24,3.34,164.8,164.8,0,0,0,26-2.3,138.33,138.33,0,0,0,19.76-5.07c-21.91,4.63-44.3,5.51-66.6,3.64a149.62,149.62,0,0,1-24.43-3.92c-7.26-1.84-14.26-4.15-20.72-8C195.4,378.6,206,382,216.56,384.25Z" transform="translate(-1.24 -43.12)"/></g><g id="a4c18d45-1264-4870-936e-bfa6628b0455" data-name="Layer 10"><path class="ac64e569-4272-4727-a398-8436c8f5876b" d="M277.84,189.35c25.35,32,33.35,72.94,34.24,110.29S306.3,370.8,289,396.14c-17.35,25.8-44.92,43.14-78.72,63.6s-72.93,44-101.39,34.69c-28-9.34-45.36-51.59-65.82-90.28C22.13,365.46-2.33,329.88,1.67,298.31c3.56-32,35.58-60.48,68.49-91.17,32.46-30.68,66.26-63.59,103.62-68C211.58,134.21,252.93,157.33,277.84,189.35Z" transform="translate(-1.24 -43.12)"/><path class="abc18d79-b5fe-4432-9451-acd5052f1e23" d="M37.77,403.7a20.17,20.17,0,1,0,20.16,20.16A20.17,20.17,0,0,0,37.77,403.7Zm0,27.46a7.3,7.3,0,1,1,7.29-7.3A7.29,7.29,0,0,1,37.77,431.16Z" transform="translate(-1.24 -43.12)"/><path class="abc18d79-b5fe-4432-9451-acd5052f1e23" d="M37.77,372a12.44,12.44,0,1,0,12.44,12.44A12.44,12.44,0,0,0,37.77,372Zm0,16.94a4.5,4.5,0,1,1,4.5-4.5A4.49,4.49,0,0,1,37.77,388.89Z" transform="translate(-1.24 -43.12)"/><rect class="a301c6e4-b486-42bb-aca4-b8d8f2bac932" x="10.63" y="322.45" width="51.8" height="84.32" rx="3.94"/><path class="abc18d79-b5fe-4432-9451-acd5052f1e23" d="M283.78,403.7a20.17,20.17,0,1,0,20.16,20.16A20.17,20.17,0,0,0,283.78,403.7Zm0,27.46a7.3,7.3,0,1,1,7.29-7.3A7.29,7.29,0,0,1,283.78,431.16Z" transform="translate(-1.24 -43.12)"/><path class="abc18d79-b5fe-4432-9451-acd5052f1e23" d="M283.78,372a12.44,12.44,0,1,0,12.44,12.44A12.44,12.44,0,0,0,283.78,372Zm0,16.94a4.5,4.5,0,1,1,4.5-4.5A4.49,4.49,0,0,1,283.78,388.89Z" transform="translate(-1.24 -43.12)"/><rect class="a301c6e4-b486-42bb-aca4-b8d8f2bac932" x="256.64" y="322.45" width="51.8" height="84.32" rx="3.94"/><line class="a3e1a867-6b4b-4a65-9ac0-39c7f9c639e0" x1="84.27" y1="127.03" x2="84.27" y2="140.19"/><line class="a3e1a867-6b4b-4a65-9ac0-39c7f9c639e0" x1="90.85" y1="133.61" x2="77.69" y2="133.61"/><line class="a3e1a867-6b4b-4a65-9ac0-39c7f9c639e0" x1="55.48" y1="207.66" x2="55.48" y2="216.71"/><line class="a3e1a867-6b4b-4a65-9ac0-39c7f9c639e0" x1="60" y1="212.18" x2="50.95" y2="212.18"/><line class="a3e1a867-6b4b-4a65-9ac0-39c7f9c639e0" x1="254.59" y1="120.45" x2="254.59" y2="129.5"/><line class="a3e1a867-6b4b-4a65-9ac0-39c7f9c639e0" x1="259.11" y1="124.97" x2="250.06" y2="124.97"/><line class="a3e1a867-6b4b-4a65-9ac0-39c7f9c639e0" x1="200.28" y1="331.9" x2="200.28" y2="340.95"/><line class="a3e1a867-6b4b-4a65-9ac0-39c7f9c639e0" x1="204.81" y1="336.42" x2="195.76" y2="336.42"/><line class="a3e1a867-6b4b-4a65-9ac0-39c7f9c639e0" x1="244.3" y1="200.25" x2="244.3" y2="210.95"/><line class="a3e1a867-6b4b-4a65-9ac0-39c7f9c639e0" x1="249.65" y1="205.6" x2="238.95" y2="205.6"/><line class="a3e1a867-6b4b-4a65-9ac0-39c7f9c639e0" x1="271.04" y1="125.38" x2="271.04" y2="136.08"/><line class="a3e1a867-6b4b-4a65-9ac0-39c7f9c639e0" x1="276.39" y1="130.73" x2="265.69" y2="130.73"/><path class="a3e1a867-6b4b-4a65-9ac0-39c7f9c639e0" d="M37,218.28a3.71,3.71,0,1,1-3.71-3.7A3.71,3.71,0,0,1,37,218.28Z" transform="translate(-1.24 -43.12)"/><path class="a3e1a867-6b4b-4a65-9ac0-39c7f9c639e0" d="M229.5,359.39a3.71,3.71,0,1,1-3.71-3.7A3.71,3.71,0,0,1,229.5,359.39Z" transform="translate(-1.24 -43.12)"/><path class="a3e1a867-6b4b-4a65-9ac0-39c7f9c639e0" d="M289.56,236.38a3.71,3.71,0,1,1-3.7-3.7A3.71,3.71,0,0,1,289.56,236.38Z" transform="translate(-1.24 -43.12)"/><circle class="a3e1a867-6b4b-4a65-9ac0-39c7f9c639e0" cx="55.48" cy="110.98" r="2.88"/><circle class="a3e1a867-6b4b-4a65-9ac0-39c7f9c639e0" cx="97.44" cy="315.85" r="2.88"/><circle class="a3e1a867-6b4b-4a65-9ac0-39c7f9c639e0" cx="30.79" cy="245.1" r="2.88"/><path class="abc18d79-b5fe-4432-9451-acd5052f1e23" d="M129.41,442.23c-2-8.92-1.5-18,5-27.27a71.57,71.57,0,0,1,11.43-12.7V356.49c-5.4-.55-8.85-5.89-8.85-13.86v0h0c0-2.9,0-7.75.43-13.43v0c.12-2.87.25-5.64.35-7.77-.51-.16-1-.31-1.52-.48a48.65,48.65,0,0,1-16.62-9.18,36,36,0,0,1-3.44-3.44,36.83,36.83,0,0,1-2.94-3.86,25.08,25.08,0,0,1-3.59-9.3c-1.16-6.43-.83-12.78-.27-19S111,263.84,112,257.84,114,245.9,115.06,240s2.11-11.67,3.38-17.37a82.18,82.18,0,0,1,5.22-16.61,27.81,27.81,0,0,1,4.89-7.32,16.53,16.53,0,0,1,3.64-2.71,37.66,37.66,0,0,1,3.76-1.88,89.94,89.94,0,0,1,15-4.82,113.36,113.36,0,0,1,14.43-2.49c2.35-.24,4.67-.4,7-.42a37.59,37.59,0,0,1,6.83.5,28,28,0,0,1,6.2,2,44.64,44.64,0,0,1,5.32,2.87,70.21,70.21,0,0,1,15.13,12.94,46.86,46.86,0,0,1,7.32,10.7,25.12,25.12,0,0,1,1.31,3.35l.3,1.11v0l.23,1.21c.09.39.16.88.23,1.45s.16,1.25.21,2a85.44,85.44,0,0,1,0,10.85l-7.09-4.83,6.81,9.15c-.12,1.48-.25,3-.41,4.66l-7.39-4.86,6.94,9.28c-.15,1.41-.32,2.87-.5,4.36l-7.43-4.69,6.9,9.17c-.18,1.38-.35,2.79-.53,4.22l-7.36-4.43,6.79,9c-.18,1.36-.35,2.74-.54,4.14l-7.24-4.15,6.64,8.7c-.19,1.34-.38,2.7-.57,4.07l-7.06-3.82,6.39,8.32c-.21,1.34-.42,2.68-.65,4l-6.73-3.4,6,7.7c-.26,1.36-.53,2.74-.82,4.12l-6.14-2.87,5.25,6.72c-.3,1.25-.64,2.5-1,3.76a53.19,53.19,0,0,1-2.79,7.62,27.29,27.29,0,0,1-2.1,3.74c-.22.31-.4.6-.66.92s-.52.67-.74.9l-.34.37-.18.19-.27.27a10,10,0,0,1-1,.79,25,25,0,0,1-8.19,3.49c-1.05.28-2.12.52-3.19.74-.36,1.49-1,4.07-1.69,6.95a13.65,13.65,0,0,1,2.79,8.29,13.51,13.51,0,0,1-3.25,9,11,11,0,0,1-6.59,3.73,16.13,16.13,0,0,1-1.46,1.86c.42,3,2,6.18,3.75,9.53,3.21,6.31,7.21,14.15,1.88,21.85-3.71,5.36-10,9-16.1,12.58l-.2.12v60.18l3.8-15.85c33.84,2.18,59.45,12.38,59.45,24.63v8.82c0,13.85-32.69,25.07-73,25.07s-73-11.22-73-25.07v-8.82C82.6,455,102,445.85,129.41,442.23Zm5.05-23.92a29.66,29.66,0,0,0-4.17,11.87c.59-1.62,1.07-3.27,1.71-4.88a50.07,50.07,0,0,1,3.15-6.25c1.92-3.35,4.47-6.32,6.33-9.7A72.11,72.11,0,0,0,134.46,418.31Zm5.57.58c-5.28,7.51-5.68,14.88-3.8,22.57,3.13-.29,6.35-.52,9.63-.67V411.74A63.38,63.38,0,0,0,140,418.89Zm1.13-74.68a24,24,0,0,0,2,6.11,25.21,25.21,0,0,1-1-5.78,34.1,34.1,0,0,1,.73-7.13c.68-3.35,1.45-6.67,2.24-10l11.74.16c.43,3.95.86,7.9,1.51,11.82a33.28,33.28,0,0,0,2.34,8.08,24.6,24.6,0,0,0,3.71,5.7,31.61,31.61,0,0,1-2.57-5.38,32.09,32.09,0,0,1-1.23-8.15c-.1-4,.09-8,.27-12h0c.15-3.26.33-6.43.43-8.21H141.8c-.07,1.41-.17,3.49-.28,5.87-.28,3.8-.56,7.6-.7,11.4A34.46,34.46,0,0,0,141.16,344.21ZM152,463.47a1,1,0,0,0,2,0L153.71,418q-.19-37.05-.25-74.09V331a282.22,282.22,0,0,0-2,32.88c-.13,12.67-.14,25.34-.21,38-.07,12.48,0,25,.22,37.45.08,5.49.2,11,.29,16.49,0,2.23.1,4.46.16,6.7C152,462.83,152,463.17,152,463.47ZM113.65,272.31c2,0,4,0,6,.07,2.56.18,5.09.48,7.64.8,0-2.81.08-5.62.24-8.43-2.1.45-4.19.91-6.27,1.47-2.42.65-4.76,1.49-7.11,2.34Q113.88,270.44,113.65,272.31Zm1.16-8.45c2-.09,4.1-.14,6.15-.07,2.2.1,4.39.28,6.58.48q.25-4.08.67-8.14a122.51,122.51,0,0,0-12.83,4.09Zm1.37-8.42c4-.19,8-.17,12.1,0,.28-2.68.59-5.36.93-8-4.21,1.27-8.33,2.7-12.42,4.38C116.58,253,116.38,254.23,116.18,255.44Zm2.1-12,0-.09c-.21,1.22-.43,2.45-.64,3.67,3.9-.26,7.78-.34,11.68-.29.34-2.65.69-5.3,1-7.94C126.25,240.15,122.25,241.66,118.28,243.4Zm1.5-8.59c-.23,1.23-.45,2.47-.68,3.71,3.78-.34,7.55-.52,11.34-.59q.51-4,1.17-7.93c-4,1.53-7.9,3.15-11.79,4.95C119.81,234.91,119.79,234.86,119.78,234.81Zm.9-4.77c3.69-.4,7.37-.68,11.08-.87.47-2.72,1-5.43,1.63-8.12-4,1.71-8,3.5-12,5.45C121.15,227.67,120.91,228.86,120.68,230Zm2.72-12.23q-.5,1.84-.93,3.72c3.69-.48,7.37-.86,11.08-1.17q1-4.4,2.44-8.69C131.75,213.64,127.55,215.65,123.4,217.81Zm63.9-20.29a7.52,7.52,0,0,0-4.73-.59c-2.82.87-3.91,4.58-4,7.22,1.5-1.71,2.14-4.78,4.25-5.84,1.18-.59,2.74-.3,4-.08s2.22.43,3.34.59C190.11,198.51,187.57,197.62,187.3,197.52Zm-1.89,16.69a38.26,38.26,0,0,0-11.73-5.67h0c-9.43-.85-18.84.92-28.29.79-.37,3-.73,5.92-1.07,8.88.41-.25,2.09-1,2.26-1.06,1.15-.46,2.32-.84,3.5-1.21a69.93,69.93,0,0,1,8.16-2,46.14,46.14,0,0,1,14.4-.77c.35.05.71.11,1.06.18a33.1,33.1,0,0,1,10.79,3.21,89,89,0,0,1,11.4,6.65A92.37,92.37,0,0,0,185.41,214.21Zm-9.68,55.41a56.47,56.47,0,0,0-9.79-3.91v-.08c-4.86-.85-9.83-1.22-14.74-1.61-2.53-.21-5.07-.38-7.6-.57-1.14-.08-2.28-.15-3.42-.24-.08,0-1.22-.15-1.76-.26,0,.1,0,.2-.05.31-.45,2.83-.92,5.66-1.33,8.51,9-3.08,19.16-3.14,28.45-1.43l.16,0,.71.07a30.19,30.19,0,0,1,4.83.88c6.32,1.61,12.12,4.3,17.94,7.16a89.14,89.14,0,0,0-13.41-8.86Zm-35.87-7.35a33.94,33.94,0,0,1,3.39-.91,61.9,61.9,0,0,1,7.52-1.19,61,61,0,0,1,14.41.38c.69.11,1.37.24,2,.38l.51,0a36.92,36.92,0,0,1,4.67.87c6.31,1.52,12.13,4.48,17.85,7.44a83.83,83.83,0,0,0-13.21-9.07c.17.09.34.18,0,0l-.21-.1.2.1a53.53,53.53,0,0,0-9.49-3.9l0-.14c-2.81-.51-5.72-.66-8.53-.89-4.76-.37-9.53-.57-14.3-.81-1.24-.07-2.5-.12-3.74-.22a5.61,5.61,0,0,1-1.19-.2c-.43,2.87-.88,5.74-1.33,8.61A12,12,0,0,1,139.86,262.27Zm0-8.59a47.48,47.48,0,0,1,7-1.93,58.36,58.36,0,0,1,17.54-.93,37.33,37.33,0,0,1,3.9.6v-.07l.46.06a37.19,37.19,0,0,1,5.13,1c6.18,1.53,11.89,4.61,17.44,7.64a80.93,80.93,0,0,0-13-9.26l-.07,0c-.33-.18-.23-.12-.07,0a52.73,52.73,0,0,0-9.22-3.89s0-.1,0-.15a65.86,65.86,0,0,0-8.39-.75c-4.93-.26-9.87-.37-14.8-.52-1.3,0-2.59-.06-3.89-.15a2.66,2.66,0,0,1-.91-.18q-.59,4.32-1.23,8.62Zm1.61-9.11a50.46,50.46,0,0,1,7.23-2,60.21,60.21,0,0,1,17.2-1.16,30,30,0,0,1,3.8.55v-.07h0c.36,0,.71.09,1.06.14,1.59.29,3.14.58,4.69,1,6.07,1.56,11.65,4.76,17,7.84a78.43,78.43,0,0,0-12.79-9.48c.14.08.22.12-.06,0s-.22-.12-.06,0a49.53,49.53,0,0,0-9.33-4c0-.05,0-.11,0-.17a60.66,60.66,0,0,0-9.31-.6c-5.27-.13-10.54,0-15.81-.17l-2,0a2.84,2.84,0,0,1-.91-.11c-.35,2.86-.7,5.71-1.09,8.56A2.5,2.5,0,0,1,141.49,244.57Zm2.67-9.5a59,59,0,0,1,7.72-2.06A58.24,58.24,0,0,1,168.33,232a23,23,0,0,1,2.49.36.41.41,0,0,0,0-.11c.43.12.86.19,1,.22a44.31,44.31,0,0,1,5,1.09c6,1.71,11.5,4.89,16.82,8.1a77.19,77.19,0,0,0-12.59-9.68c.12.07.18.1-.08-.05s-.24-.13-.1,0a46.45,46.45,0,0,0-9.55-4.16v-.11c-.92-.1-1.88-.08-2.78-.24-2.69-.17-5.37-.2-8.05-.2-5.34,0-10.68.27-16,.19-.22,0-1.08,0-1.19-.13q-.51,4.37-1,8.75A10.66,10.66,0,0,1,144.16,235.07Zm-.63-8.2a15.48,15.48,0,0,1,3.07-1.19,69.55,69.55,0,0,1,7.74-2.07,51.86,51.86,0,0,1,15.76-1.11c.59.06,1.18.14,1.76.25v-.07a12.06,12.06,0,0,0,1.23.2,22.38,22.38,0,0,1,4.72,1.05c6.11,1.81,11.62,5.07,16.95,8.47a74.4,74.4,0,0,0-12.41-9.9c.12.06.18.1-.07-.05a41.77,41.77,0,0,0-5.66-3c-1.39-.55-2.79-1-4.23-1.41a.28.28,0,0,0,0-.09c-1-.13-2.12-.14-3.15-.2-3-.15-6-.08-8.94,0-3.13.13-6.27.27-9.4.37-1.36,0-2.73.08-4.1.1a8.41,8.41,0,0,1-2.51,0c-.34,2.92-.67,5.83-1,8.75A.91.91,0,0,1,143.53,226.87ZM203,268c1.58-12.32,3-24.71,3.48-37.13q.22-5.9.1-11.78c-.75,10.79-2.08,21.52-3.43,32.25-1.52,12.2-2.83,24.45-4.63,36.61a97.6,97.6,0,0,1-2.61,12.9C200.34,290.53,201.58,279,203,268Zm-11.8,13c1.27-5.93,2.26-11.93,3.08-17.94,1.66-12.17,3.05-24.41,3.75-36.67.26-4.42.39-8.85.24-13.28-1,10.42-2.33,20.8-3.6,31.19-1.52,12.3-2.89,24.63-4.76,36.88a117.25,117.25,0,0,1-2.71,13.9A83.75,83.75,0,0,0,191.18,281Zm-12.6,36.32c.83.18,1.66.32,2.5.44-7.14-3.84-14.47-10.72-16.38-18.24-1.53-6-1.55-12.35-.79-19.65,1.26.13,2.51.31,3.74.53-.16,3.67-.34,7.33-.21,11a24.47,24.47,0,0,0,1.19,7.26,37.93,37.93,0,0,0,2.18,4.92,37.93,37.93,0,0,1-1.46-5.05,24.13,24.13,0,0,1-.17-7.15c.36-3.45,1-6.87,1.63-10.28A99,99,0,0,1,188,287.69c-3.51-2.47-7-5-10.7-7.08a57,57,0,0,0-12.85-5.44v-.05l-.79-.15c-4.89-.82-9.83-1.42-14.76-1.92-4-.39-8-.57-11.91-1.1-.28,2-.55,4-.73,6.07-.16-1.64-.26-3.28-.27-4.93-.08-12,1.61-24.18,3.18-36.1,1.42-10.79,3.15-21.76,6.81-32-.17,1.34-.41,2.68-.57,4l0,.22c1.32-.61,2.67-1.16,4-1.64a67.57,67.57,0,0,1,16.89-3.92,33.17,33.17,0,0,1,8.21,0c.37-1.87.77-3.6,1.21-5.16,2-7.2,6.76-5.45,12.08-4.37a30,30,0,0,0-9.37-3.8,28,28,0,0,0-3.82-.37,10.73,10.73,0,0,0-8.18,8.17,12.16,12.16,0,0,1,3.29-8.11c-1.32.08-2.65.17-4,.31l-1.38.18c-3.73,1.29-5.94,5-7,8.84a16.39,16.39,0,0,1,2.45-7.9l.22-.32c-2,.33-4,.72-6,1.17-3.11,1.56-5.18,4.83-6.13,8.19a15.36,15.36,0,0,1,2.18-7.26c-1.88.48-3.78,1-5.66,1.61-2.73,1.81-4.46,5.32-5.44,8.29a20.47,20.47,0,0,1,2-7.11c-1.17.44-2.34.91-3.5,1.42l-.35.16a18,18,0,0,0-6.07,9.08,21.4,21.4,0,0,1,1.9-6.83,11.34,11.34,0,0,0-1.73,1.4,24.14,24.14,0,0,0-4.21,6.38,52.42,52.42,0,0,0-2.09,5.29q5.6-.83,11.22-1.46c.63-1.89,1.31-3.77,2.07-5.62-.25,1.33-.51,2.66-.76,4-2.18,11.92-3.41,23.94-5,35.94-.82,6.12-1.76,12.23-2.73,18.34-.78,4.92-1.64,9.84-2.09,14.81-.14-1.47-.25-2.93-.27-4.41,0-.38,0-.76,0-1.14-2.5.43-5,.88-7.43,1.47-2.26.55-4.46,1.26-6.66,2-.52,5.91-.75,11.91.29,17.55a21.46,21.46,0,0,0,3,7.84,32.16,32.16,0,0,0,2.66,3.48,33.17,33.17,0,0,0,3.09,3.07,40.31,40.31,0,0,0,8.85,5.82c-.93-.71-1.84-1.44-2.73-2.22a31.75,31.75,0,0,1-8.53-11.66,27.26,27.26,0,0,1-1.42-15.77,28.26,28.26,0,0,0,2.94,14.17A29.55,29.55,0,0,0,130,309a47.26,47.26,0,0,0,8.38,4.94c-1.07-.85-2.1-1.76-3.11-2.71a30.1,30.1,0,0,1-9-26.34,26.12,26.12,0,0,0,.48,6.24,33,33,0,0,0,18.09,22.3c.91.44,1.82.85,2.74,1.24-1-.8-1.93-1.65-2.86-2.54-7.22-6.95-11.14-17.93-9.53-27.83a27.29,27.29,0,0,0,.58,6.44A33,33,0,0,0,142,304.35a31.47,31.47,0,0,0,4.58,4.86,56,56,0,0,0,5.28,3.75,32,32,0,0,0,4.79,2.4c-.67-.57-1.33-1.15-2-1.77a36.93,36.93,0,0,1-9.11-15,32,32,0,0,1-1.57-14.8,31.35,31.35,0,0,0,3,14.11,34.37,34.37,0,0,0,10,13.18,30,30,0,0,0,7.49,4.29c-.63-.58-1.23-1.17-1.81-1.79a38.68,38.68,0,0,1-8.53-15.36c-1.41-4.77-2.3-10.07-1.31-15a31,31,0,0,0,2.12,11.16,43.29,43.29,0,0,0,6.62,12.23,28.91,28.91,0,0,0,10.57,8.62A31.35,31.35,0,0,0,178.58,317.3ZM177,347.62a10.67,10.67,0,0,1-5.41-3.28,9.57,9.57,0,0,1-2.29-5.86,9.74,9.74,0,0,1,2.06-6.41,10.93,10.93,0,0,1,5.57-3.55c-5.89-1.24-10.42,4.09-10.57,9.59a10.57,10.57,0,0,0,3.25,7.45A8.36,8.36,0,0,0,177,347.62Zm1.42,33.8c3.31-5.11.88-11.29-2.27-15.8,2.05,4.27,4.44,9.73,1.94,14.35-2.17,4.53-6.73,7.56-10.81,10.2C171.69,388.31,175.85,385.45,178.46,381.42Zm-2.41-1.34c2.85-4.13,1-8.34-2.36-14.85a50.56,50.56,0,0,1-3.79-8.8c-.25.08-.52.14-.78.21l-.31.08c-.38.09-.78.17-1.19.24l-.37.06c-.53.08-1.09.15-1.67.2h-.21v31.5C169.7,386.13,173.77,383.37,176.05,380.08Zm-56.54,107a164.53,164.53,0,0,0,37,3.41,167.38,167.38,0,0,0,26.54-2.35,142,142,0,0,0,20.19-5.18c-22.4,4.74-45.27,5.63-68.06,3.72a153.73,153.73,0,0,1-25-4c-7.42-1.88-14.57-4.24-21.17-8.19C97.89,481.27,108.72,484.75,119.51,487.05Z" transform="translate(-1.24 -43.12)"/></g></svg>