<svg xmlns="http://www.w3.org/2000/svg" viewBox="0 0 396.81 460.81"><defs><style>.b6853ac7-ab87-472d-ac8f-a4c04c94ff49{fill:#ffc500;opacity:0.7;}.f52c2d4c-cef6-482e-969c-cb6451b4c4ba{fill:#263238;}.a7de2ced-6fd5-41c4-af6e-1dc3063ac9bd,.aa354262-68b9-4aab-bc28-e0637589290e{fill:none;stroke:#263238;}.aa354262-68b9-4aab-bc28-e0637589290e{stroke-miterlimit:10;}.a7de2ced-6fd5-41c4-af6e-1dc3063ac9bd{stroke-linecap:round;stroke-linejoin:round;}</style></defs><g id="b8bf297c-2de7-44d6-a9d1-851a2c03476a" data-name="Layer 8"><path class="b6853ac7-ab87-472d-ac8f-a4c04c94ff49" d="M397.29,84.58c32.35,40.87,42.57,93.08,43.71,140.76s-7.38,90.81-29.52,123.16c-22.13,32.92-57.32,55.05-100.46,81.16s-93.08,56.19-129.4,44.27c-35.76-11.92-57.89-65.84-84-115.22-26.68-49.37-57.89-94.78-52.78-135.08,4.54-40.86,45.4-77.18,87.4-116.35,41.43-39.16,84.57-81.16,132.24-86.83C312.73,14.2,365.51,43.72,397.29,84.58Z" transform="translate(-44.28 -19.61)"/></g><g id="a955971d-a690-478b-9f6f-40037eb26813" data-name="Speakers"><path class="f52c2d4c-cef6-482e-969c-cb6451b4c4ba" d="M90.91,358.14a25.74,25.74,0,1,0,25.73,25.73A25.73,25.73,0,0,0,90.91,358.14Zm0,35a9.31,9.31,0,1,1,9.31-9.31A9.31,9.31,0,0,1,90.91,393.18Z" transform="translate(-44.28 -19.61)"/><path class="f52c2d4c-cef6-482e-969c-cb6451b4c4ba" d="M90.91,317.62a15.88,15.88,0,1,0,15.88,15.88A15.88,15.88,0,0,0,90.91,317.62Zm0,21.62a5.74,5.74,0,1,1,5.74-5.74A5.74,5.74,0,0,1,90.91,339.24Z" transform="translate(-44.28 -19.61)"/><rect class="aa354262-68b9-4aab-bc28-e0637589290e" x="13.57" y="289.87" width="66.12" height="107.61" rx="3.94"/><path class="f52c2d4c-cef6-482e-969c-cb6451b4c4ba" d="M404.87,358.14a25.74,25.74,0,1,0,25.74,25.73A25.73,25.73,0,0,0,404.87,358.14Zm0,35a9.31,9.31,0,1,1,9.31-9.31A9.3,9.3,0,0,1,404.87,393.18Z" transform="translate(-44.28 -19.61)"/><path class="f52c2d4c-cef6-482e-969c-cb6451b4c4ba" d="M404.87,317.62a15.88,15.88,0,1,0,15.88,15.88A15.88,15.88,0,0,0,404.87,317.62Zm0,21.62a5.74,5.74,0,1,1,5.75-5.74A5.74,5.74,0,0,1,404.87,339.24Z" transform="translate(-44.28 -19.61)"/><rect class="aa354262-68b9-4aab-bc28-e0637589290e" x="327.53" y="289.87" width="66.12" height="107.61" rx="3.94"/></g><g id="a16fd282-0f41-4705-a309-064a00bbc574" data-name="Graphics"><line class="a7de2ced-6fd5-41c4-af6e-1dc3063ac9bd" x1="107.55" y1="40.46" x2="107.55" y2="57.27"/><line class="a7de2ced-6fd5-41c4-af6e-1dc3063ac9bd" x1="115.95" y1="48.86" x2="99.15" y2="48.86"/><line class="a7de2ced-6fd5-41c4-af6e-1dc3063ac9bd" x1="70.8" y1="143.37" x2="70.8" y2="154.92"/><line class="a7de2ced-6fd5-41c4-af6e-1dc3063ac9bd" x1="76.58" y1="149.15" x2="65.03" y2="149.15"/><line class="a7de2ced-6fd5-41c4-af6e-1dc3063ac9bd" x1="324.92" y1="32.06" x2="324.92" y2="43.61"/><line class="a7de2ced-6fd5-41c4-af6e-1dc3063ac9bd" x1="330.69" y1="37.84" x2="319.14" y2="37.84"/><line class="a7de2ced-6fd5-41c4-af6e-1dc3063ac9bd" x1="255.61" y1="301.93" x2="255.61" y2="313.48"/><line class="a7de2ced-6fd5-41c4-af6e-1dc3063ac9bd" x1="261.39" y1="307.7" x2="249.84" y2="307.7"/><line class="a7de2ced-6fd5-41c4-af6e-1dc3063ac9bd" x1="311.79" y1="133.92" x2="311.79" y2="147.57"/><line class="a7de2ced-6fd5-41c4-af6e-1dc3063ac9bd" x1="318.61" y1="140.74" x2="304.96" y2="140.74"/><line class="a7de2ced-6fd5-41c4-af6e-1dc3063ac9bd" x1="345.92" y1="38.36" x2="345.92" y2="52.01"/><line class="a7de2ced-6fd5-41c4-af6e-1dc3063ac9bd" x1="352.74" y1="45.19" x2="339.09" y2="45.19"/><path class="a7de2ced-6fd5-41c4-af6e-1dc3063ac9bd" d="M89.88,121.5a4.73,4.73,0,1,1-4.72-4.72A4.72,4.72,0,0,1,89.88,121.5Z" transform="translate(-44.28 -19.61)"/><path class="a7de2ced-6fd5-41c4-af6e-1dc3063ac9bd" d="M335.6,301.59a4.73,4.73,0,1,1-4.73-4.73A4.73,4.73,0,0,1,335.6,301.59Z" transform="translate(-44.28 -19.61)"/><path class="a7de2ced-6fd5-41c4-af6e-1dc3063ac9bd" d="M412.25,144.61a4.73,4.73,0,1,1-4.73-4.73A4.72,4.72,0,0,1,412.25,144.61Z" transform="translate(-44.28 -19.61)"/><circle class="a7de2ced-6fd5-41c4-af6e-1dc3063ac9bd" cx="70.8" cy="19.99" r="3.68"/><circle class="a7de2ced-6fd5-41c4-af6e-1dc3063ac9bd" cx="124.35" cy="281.45" r="3.68"/><circle class="a7de2ced-6fd5-41c4-af6e-1dc3063ac9bd" cx="39.3" cy="191.15" r="3.68"/></g><g id="b84e3e97-721c-4fb6-9367-2f72660187f2" data-name="Layer 10"><path class="f52c2d4c-cef6-482e-969c-cb6451b4c4ba" d="M207.86,407.32c-2.6-11.39-1.91-23,6.41-34.81a91.44,91.44,0,0,1,14.59-16.21V297.89c-6.9-.71-11.3-7.52-11.3-17.69v-.06h0c0-3.71,0-9.9.55-17.14v0c.15-3.67.32-7.19.45-9.92-.65-.2-1.3-.39-1.95-.61a61.9,61.9,0,0,1-21.2-11.71,46.39,46.39,0,0,1-8.15-9.32,32.06,32.06,0,0,1-4.58-11.88c-1.48-8.19-1.06-16.29-.34-24.2s2-15.68,3.24-23.35,2.64-15.23,4-22.72,2.69-14.89,4.31-22.17,3.5-14.45,6.67-21.2a35.13,35.13,0,0,1,6.23-9.34,21.32,21.32,0,0,1,4.65-3.46,48.82,48.82,0,0,1,4.8-2.4,115.39,115.39,0,0,1,19.14-6.15,146.65,146.65,0,0,1,18.42-3.18c3-.31,6-.5,8.87-.53a46.62,46.62,0,0,1,8.71.63,35.44,35.44,0,0,1,7.91,2.59,58.25,58.25,0,0,1,6.8,3.65,89,89,0,0,1,19.3,16.52,60.12,60.12,0,0,1,9.36,13.66,31.88,31.88,0,0,1,1.66,4.28l.39,1.41v0l.3,1.55c.1.5.2,1.12.28,1.85s.21,1.59.27,2.54a109.65,109.65,0,0,1,0,13.85l-9-6.17,8.68,11.68c-.14,1.89-.31,3.88-.51,6l-9.43-6.2,8.85,11.84q-.3,2.7-.63,5.57l-9.49-6,8.8,11.7c-.22,1.75-.44,3.55-.67,5.38l-9.39-5.66L313.47,183c-.22,1.73-.45,3.49-.68,5.28l-9.24-5.29L312,194.05c-.23,1.7-.47,3.43-.72,5.18l-9-4.86L310.43,205c-.26,1.7-.53,3.42-.82,5.16L301,205.79l7.61,9.84c-.33,1.73-.67,3.48-1.05,5.25l-7.83-3.66,6.71,8.58c-.4,1.59-.82,3.18-1.29,4.79a68.5,68.5,0,0,1-3.55,9.73,37.3,37.3,0,0,1-2.68,4.78c-.29.39-.51.76-.85,1.17s-.66.85-.94,1.14l-.44.48-.22.24-.35.34c-.4.37-.81.7-1.22,1a32.07,32.07,0,0,1-10.45,4.46c-1.35.35-2.71.66-4.07.94-.46,1.9-1.26,5.2-2.17,8.87a17.71,17.71,0,0,1-.58,22,14,14,0,0,1-8.41,4.75,19.38,19.38,0,0,1-1.87,2.38c.54,3.82,2.6,7.88,4.79,12.17,4.1,8,9.2,18.05,2.4,27.88C269.83,339.8,261.79,344.48,254,349l-.26.16V426l4.86-20.22c43.18,2.78,75.87,15.79,75.87,31.42v11.27c0,17.67-41.72,32-93.18,32s-93.17-14.32-93.17-32V437.17C148.13,423.56,172.93,411.93,207.86,407.32Zm6.45-30.53A37.92,37.92,0,0,0,209,391.94c.76-2.08,1.37-4.18,2.19-6.23a63.38,63.38,0,0,1,4-8c2.45-4.27,5.7-8.07,8.08-12.37A90.73,90.73,0,0,0,214.31,376.79Zm7.1.73c-6.73,9.59-7.25,19-4.84,28.81q6-.56,12.29-.85V368.4A80.33,80.33,0,0,0,221.41,377.52Zm1.45-95.3a30.72,30.72,0,0,0,2.6,7.8,31.55,31.55,0,0,1-1.29-7.39,42.06,42.06,0,0,1,.93-9.09c.87-4.28,1.84-8.52,2.85-12.76l15,.2c.55,5,1.1,10.08,1.92,15.09a42.47,42.47,0,0,0,3,10.31c1.05,2.69,3,5,4.74,7.27a38.9,38.9,0,0,1-3.28-6.86,40.74,40.74,0,0,1-1.58-10.41c-.12-5.11.12-10.23.35-15.33h0c.2-4.17.42-8.21.56-10.48h-25c-.09,1.79-.21,4.46-.35,7.49-.36,4.85-.71,9.69-.89,14.55A43.51,43.51,0,0,0,222.86,282.22Zm13.82,152.21a1.25,1.25,0,0,0,2.5,0q-.15-29-.31-58.07-.26-47.28-.31-94.55V265.36a360.83,360.83,0,0,0-2.5,42c-.16,16.17-.18,32.34-.27,48.51-.07,15.92.06,31.87.29,47.8.1,7,.25,14,.37,21,.05,2.85.13,5.7.2,8.55C236.66,433.6,236.63,434,236.68,434.43Zm-48.93-244c2.55,0,5.09,0,7.63.1,3.27.22,6.5.6,9.75,1,0-3.58.1-7.17.31-10.76-2.68.58-5.35,1.17-8,1.88-3.08.83-6.07,1.91-9.06,3C188.15,187.26,187.94,188.86,187.75,190.45Zm1.48-10.78c2.62-.11,5.23-.18,7.85-.08,2.81.12,5.6.35,8.4.6.21-3.46.5-6.93.85-10.39A156.44,156.44,0,0,0,190,175C189.71,176.57,189.47,178.12,189.23,179.67ZM191,168.93c5.17-.25,10.29-.22,15.45,0,.36-3.42.76-6.83,1.18-10.24-5.37,1.63-10.63,3.45-15.85,5.59Zm2.69-15.37,0-.11-.81,4.68c5-.34,9.92-.44,14.91-.37.42-3.39.87-6.77,1.3-10.14C203.83,149.41,198.73,151.34,193.66,153.56Zm1.91-11c-.29,1.57-.58,3.15-.86,4.73,4.82-.43,9.62-.67,14.46-.76.45-3.37.94-6.75,1.5-10.11-5.08,1.94-10.09,4-15,6.32A1.21,1.21,0,0,0,195.57,142.6Zm1.15-6.09c4.7-.51,9.41-.87,14.14-1.12.6-3.47,1.28-6.93,2.08-10.35-5.17,2.18-10.27,4.46-15.32,7C197.31,133.49,197,135,196.72,136.51Zm3.47-15.61c-.41,1.56-.81,3.15-1.18,4.74,4.7-.61,9.4-1.09,14.13-1.48.89-3.74,1.92-7.45,3.12-11.1C210.85,115.57,205.49,118.15,200.19,120.9ZM281.75,95c-1.91-.7-4-1.37-6-.75-3.61,1.1-5,5.84-5.15,9.2,1.92-2.17,2.73-6.09,5.43-7.44,1.5-.77,3.49-.39,5.07-.11s2.85.55,4.28.76C285.34,96.27,282.09,95.14,281.75,95Zm-2.42,21.3a49.21,49.21,0,0,0-15-7.25h0c-12-1.09-24,1.17-36.1,1q-.72,5.67-1.37,11.34c.52-.32,2.67-1.27,2.89-1.36,1.46-.58,3-1.06,4.46-1.54a91.45,91.45,0,0,1,10.41-2.58c6-1.12,12.31-1.79,18.38-1,.46.06.91.15,1.36.23a42,42,0,0,1,13.77,4.1,113,113,0,0,1,14.54,8.48A116.64,116.64,0,0,0,279.33,116.31ZM267,187a72.26,72.26,0,0,0-12.5-5l0-.09c-6.2-1.1-12.54-1.57-18.81-2.07-3.23-.26-6.47-.48-9.71-.72-1.45-.1-2.91-.19-4.36-.31-.11,0-1.56-.19-2.25-.33l-.06.39c-.57,3.61-1.17,7.23-1.7,10.86,11.52-3.92,24.46-4,36.32-1.82l.19,0,.92.09a39,39,0,0,1,6.16,1.12c8.06,2.05,15.46,5.49,22.89,9.14-5.47-4.09-11-8.25-17.11-11.31Zm-45.78-9.38a41.3,41.3,0,0,1,4.33-1.16,75.9,75.9,0,0,1,9.59-1.51,77.06,77.06,0,0,1,18.4.48c.87.13,1.74.3,2.61.48.27,0,.52,0,.65,0a44.67,44.67,0,0,1,6,1.11c8.05,1.93,15.48,5.71,22.79,9.5-5.36-4.23-10.78-8.44-16.87-11.59.23.12.44.23,0,0l-.27-.14.26.14a69.55,69.55,0,0,0-12.11-5l0-.17a108.14,108.14,0,0,0-10.88-1.13c-6.07-.48-12.16-.74-18.25-1.05-1.59-.08-3.19-.14-4.78-.27a7.31,7.31,0,0,1-1.51-.26q-.84,5.5-1.71,11A16.77,16.77,0,0,1,221.2,177.64Zm0-11a61.69,61.69,0,0,1,9-2.47A74.47,74.47,0,0,1,252.59,163a49.52,49.52,0,0,1,5,.76l0-.09.58.09a48.09,48.09,0,0,1,6.54,1.26c7.89,2,15.19,5.89,22.27,9.75-5.23-4.32-10.56-8.59-16.56-11.81.18.09.29.15-.09-.05s-.29-.15-.09-.05a65.77,65.77,0,0,0-11.76-5c0-.07,0-.13,0-.2a83.88,83.88,0,0,0-10.71-1c-6.29-.33-12.59-.47-18.89-.65-1.65-.05-3.3-.09-4.95-.19a3.43,3.43,0,0,1-1.17-.24q-.74,5.51-1.57,11Zm2-11.62a63.15,63.15,0,0,1,9.24-2.62A76.65,76.65,0,0,1,254.45,151a37,37,0,0,1,4.85.71.38.38,0,0,0,0-.1h0c.46,0,.91.12,1.36.18,2,.37,4,.74,6,1.28,7.74,2,14.87,6.08,21.74,10-5.14-4.44-10.38-8.77-16.33-12.1.17.1.29.16-.08,0l-.07,0A62.46,62.46,0,0,0,260,145.74a1.5,1.5,0,0,0,0-.22,77.64,77.64,0,0,0-11.88-.77c-6.72-.17-13.45,0-20.18-.21-.86,0-1.73,0-2.59-.06a3.11,3.11,0,0,1-1.17-.14q-.66,5.47-1.38,10.93A1.81,1.81,0,0,1,223.27,155.06Zm3.41-12.13a79.69,79.69,0,0,1,30.85-4,30.05,30.05,0,0,1,3.18.46s0-.1,0-.14a13.34,13.34,0,0,0,1.31.27,54.55,54.55,0,0,1,6.33,1.4c7.68,2.18,14.68,6.24,21.46,10.34a97.63,97.63,0,0,0-16.06-12.36c.15.09.22.13-.11-.06l-.12-.07a59.06,59.06,0,0,0-12.19-5.3l0-.15c-1.19-.13-2.41-.1-3.56-.31-3.42-.21-6.84-.25-10.27-.24-6.82,0-13.63.33-20.45.23-.29,0-1.39.06-1.53-.17q-.65,5.6-1.31,11.17A14,14,0,0,1,226.68,142.93Zm-.79-10.46a19,19,0,0,1,3.91-1.53,93.38,93.38,0,0,1,9.88-2.64,66.7,66.7,0,0,1,20.12-1.42c.75.08,1.5.19,2.24.32a.28.28,0,0,1,0-.09,13.71,13.71,0,0,0,1.56.26,29.18,29.18,0,0,1,6,1.34c7.78,2.31,14.83,6.47,21.63,10.81a94.93,94.93,0,0,0-15.84-12.64c.15.09.22.13-.09-.06a53.31,53.31,0,0,0-7.22-3.78c-1.78-.71-3.57-1.28-5.4-1.81,0,0,0-.08,0-.11-1.33-.17-2.71-.19-4-.26-3.79-.2-7.62-.1-11.41,0-4,.17-8,.34-12,.47-1.75.06-3.49.1-5.24.14-.47,0-2.64.33-3.2,0-.44,3.72-.86,7.45-1.29,11.17A.87.87,0,0,1,225.89,132.47Zm75.87,52.42c2-15.72,3.81-31.54,4.43-47.38.2-5,.25-10,.14-15-1,13.77-2.67,27.47-4.38,41.16-1.94,15.57-3.61,31.2-5.91,46.72a123.22,123.22,0,0,1-3.34,16.47C298.39,213.71,300,198.94,301.76,184.89ZM286.7,201.53c1.62-7.58,2.88-15.24,3.92-22.91,2.13-15.52,3.9-31.15,4.79-46.8.33-5.63.5-11.29.31-16.94-1.31,13.3-3,26.54-4.6,39.8-1.93,15.7-3.69,31.43-6.06,47.07a152.3,152.3,0,0,1-3.47,17.74A106.64,106.64,0,0,0,286.7,201.53Zm-16.08,46.34c1.05.24,2.12.41,3.19.57-9.12-4.91-18.48-13.69-20.91-23.28-2-7.66-2-15.76-1-25.08,1.61.16,3.2.39,4.78.68-.2,4.68-.44,9.35-.27,14a31.34,31.34,0,0,0,1.51,9.27,51.05,51.05,0,0,0,2.79,6.28,49.09,49.09,0,0,1-1.86-6.45,30.63,30.63,0,0,1-.22-9.12c.46-4.41,1.28-8.77,2.08-13.12,7.58,1.92,14.78,5.1,22,8.43-4.47-3.15-8.88-6.33-13.65-9a73,73,0,0,0-16.4-7V194c-.33-.06-.66-.13-1-.18-6.24-1.06-12.54-1.83-18.84-2.45-5-.51-10.16-.74-15.19-1.41-.37,2.57-.7,5.16-.94,7.75-.2-2.1-.33-4.19-.34-6.3-.11-15.37,2-30.86,4.06-46.07,1.81-13.77,4-27.77,8.69-40.89-.22,1.71-.52,3.41-.73,5.13l0,.28c1.68-.77,3.41-1.48,5.14-2.1a86.41,86.41,0,0,1,21.56-5,42.24,42.24,0,0,1,10.48,0c.47-2.38,1-4.59,1.54-6.58,2.59-9.19,8.63-7,15.42-5.58a31,31,0,0,0-16.84-5.32,13.68,13.68,0,0,0-10.43,10.42,15.54,15.54,0,0,1,4.19-10.34c-1.68.09-3.37.22-5.1.4-.58.06-1.17.15-1.76.22-4.76,1.65-7.59,6.36-9,11.28a21.08,21.08,0,0,1,3.13-10.08c.09-.14.19-.27.29-.4q-3.81.63-7.7,1.48c-4,2-6.62,6.18-7.82,10.46a19.53,19.53,0,0,1,2.78-9.27c-2.4.62-4.82,1.3-7.23,2.06-3.49,2.31-5.68,6.79-6.94,10.59a26.09,26.09,0,0,1,2.53-9.08c-1.5.56-3,1.16-4.47,1.81l-.44.2c-3.79,2.72-6.35,7.21-7.75,11.59A27.37,27.37,0,0,1,212.29,98a15.06,15.06,0,0,0-2.21,1.78,30.92,30.92,0,0,0-5.37,8.15,63.72,63.72,0,0,0-2.66,6.76c4.76-.71,9.52-1.32,14.31-1.87q1.2-3.63,2.65-7.17c-.33,1.7-.66,3.4-1,5.09-2.79,15.21-4.36,30.55-6.42,45.87-1.05,7.81-2.25,15.61-3.49,23.41-1,6.27-2.09,12.56-2.67,18.89-.18-1.87-.31-3.74-.34-5.63,0-.48,0-1,0-1.45-3.18.56-6.35,1.13-9.48,1.88-2.89.7-5.7,1.61-8.51,2.56-.66,7.54-.95,15.19.38,22.39a27.34,27.34,0,0,0,3.84,10,42.45,42.45,0,0,0,3.39,4.44A41.76,41.76,0,0,0,198.7,237,51.2,51.2,0,0,0,210,244.4c-1.19-.9-2.36-1.84-3.49-2.83a40.6,40.6,0,0,1-10.89-14.88,34.82,34.82,0,0,1-1.81-20.13,36.06,36.06,0,0,0,3.75,18.09,37.91,37.91,0,0,0,11,12.68,61.2,61.2,0,0,0,10.7,6.31c-1.36-1.09-2.68-2.24-4-3.47-8.94-8.49-13.59-21.45-11.51-33.61a33.86,33.86,0,0,0,.61,8c2.75,12.55,11.6,22.89,23.09,28.46,1.16.56,2.33,1.08,3.5,1.57-1.25-1-2.46-2.09-3.65-3.24-9.21-8.87-14.21-22.87-12.17-35.51a34.91,34.91,0,0,0,.75,8.22A42,42,0,0,0,224,231.35a40.35,40.35,0,0,0,5.84,6.2,72,72,0,0,0,6.74,4.78,41.06,41.06,0,0,0,6.11,3.07c-.86-.73-1.69-1.48-2.49-2.26A47.17,47.17,0,0,1,228.55,224c-1.93-6-3-12.61-2-18.89-.33,6.16,1.39,12.42,3.87,18a44.26,44.26,0,0,0,12.81,16.82,38.62,38.62,0,0,0,9.57,5.46c-.8-.73-1.57-1.48-2.31-2.28a49.32,49.32,0,0,1-10.89-19.6c-1.8-6.08-2.94-12.85-1.67-19.15-.16,4.86,1.11,9.68,2.7,14.23a55.41,55.41,0,0,0,8.46,15.62,36.82,36.82,0,0,0,13.49,11A39.23,39.23,0,0,0,270.62,247.87Zm-2,38.7a13.64,13.64,0,0,1-6.9-4.19,12.14,12.14,0,0,1-2.92-7.47,12.41,12.41,0,0,1,2.62-8.19,14.18,14.18,0,0,1,7.11-4.53c-7.51-1.59-13.3,5.22-13.49,12.24.25,3.63,1.38,7,4.15,9.51A10.68,10.68,0,0,0,268.65,286.57Zm1.81,43.13c4.23-6.51,1.12-14.41-2.9-20.16,2.62,5.45,5.67,12.42,2.49,18.32-2.77,5.77-8.59,9.64-13.81,13C261.83,338.5,267.13,334.85,270.46,329.7ZM267.38,328c3.65-5.26,1.24-10.63-3-18.95a65.09,65.09,0,0,1-4.85-11.23c-.31.1-.66.18-1,.26l-.39.11q-.73.17-1.53.3c-.15,0-.3.07-.47.09-.68.1-1.38.19-2.12.25l-.28,0V339C259.28,335.72,264.47,332.19,267.38,328ZM195.23,464.52a209.54,209.54,0,0,0,47.27,4.34,213.59,213.59,0,0,0,33.87-3,181.38,181.38,0,0,0,25.77-6.61c-28.59,6-57.78,7.19-86.86,4.74a196.11,196.11,0,0,1-31.87-5.11c-9.48-2.4-18.6-5.41-27-10.45C167.63,457.14,181.46,461.57,195.23,464.52Z" transform="translate(-44.28 -19.61)"/></g></svg>